<?xml version="1.0" encoding="UTF-8" standalone="no"?>
<svg
   xmlns:dc="http://purl.org/dc/elements/1.1/"
   xmlns:cc="http://creativecommons.org/ns#"
   xmlns:rdf="http://www.w3.org/1999/02/22-rdf-syntax-ns#"
   xmlns:svg="http://www.w3.org/2000/svg"
   xmlns="http://www.w3.org/2000/svg"
   xmlns:sodipodi="http://sodipodi.sourceforge.net/DTD/sodipodi-0.dtd"
   xmlns:inkscape="http://www.inkscape.org/namespaces/inkscape"
   inkscape:export-ydpi="300"
   inkscape:export-xdpi="300"
   inkscape:export-filename="/Users/lucacorsato/Documents/osd/website/rioba-project/img/rioba.meta.png"
   inkscape:version="1.0 (4035a4f, 2020-05-01)"
   sodipodi:docname="rioba.meta.svg"
   id="svg8"
   version="1.1"
   viewBox="0 0 423.33331 223.52001"
   height="844.80005"
   width="1600">
  <defs
     id="defs2" />
  <sodipodi:namedview
     units="px"
     inkscape:document-rotation="0"
     fit-margin-bottom="0"
     fit-margin-right="0"
     fit-margin-left="0"
     fit-margin-top="0"
     inkscape:window-maximized="0"
     inkscape:window-y="43"
     inkscape:window-x="55"
     inkscape:window-height="1118"
     inkscape:window-width="1920"
     showguides="false"
     showgrid="false"
     inkscape:current-layer="svg8"
     inkscape:document-units="mm"
     inkscape:cy="458.09232"
     inkscape:cx="797.53846"
     inkscape:zoom="0.8125"
     inkscape:pageshadow="2"
     inkscape:pageopacity="0.0"
     borderopacity="1.0"
     bordercolor="#666666"
     pagecolor="#ffffff"
     id="base"
     inkscape:snap-global="false"
     inkscape:snap-bbox="true"
     inkscape:object-paths="true"
     inkscape:snap-smooth-nodes="true" />
  <metadata
     id="metadata5">
    <rdf:RDF>
      <cc:Work
         rdf:about="">
        <dc:format>image/svg+xml</dc:format>
        <dc:type
           rdf:resource="http://purl.org/dc/dcmitype/StillImage" />
        <dc:title></dc:title>
      </cc:Work>
    </rdf:RDF>
  </metadata>
  <g
     transform="translate(-27.308577,-52.862736)"
     style="display:inline;opacity:1"
     inkscape:label="Livello 2"
     id="layer2"
     inkscape:groupmode="layer" />
  <g
     inkscape:label="Livello 3"
     id="layer3"
     inkscape:groupmode="layer"
     style="display:inline" />
  <g
     transform="scale(0.32000001)"
     id="g3135">
    <rect
       transform="translate(-27.308577,-52.862737)"
       style="display:inline;opacity:1;fill:#5d6c53;fill-opacity:1;stroke:none;stroke-width:1.31544;stroke-linecap:round;stroke-linejoin:round;stroke-miterlimit:4;stroke-dasharray:none;stroke-opacity:1"
       id="rect1114"
       width="1322.9166"
       height="698.5"
       x="27.308577"
       y="52.862736" />
    <g
       id="g1492"
       transform="matrix(-16.165518,0,0,16.165518,636.79821,26.743824)">
      <path
         style="display:inline;fill:#e6e6e6;fill-opacity:1;stroke:#000000;stroke-width:0.659598;stroke-linecap:round;stroke-linejoin:round;stroke-miterlimit:4;stroke-dasharray:none;stroke-opacity:1"
         d="M 6.8111203,14.298356 6.7111755,13.0324 C 1.9751998,-4.2094177 28.322942,-2.0215101 31.763791,7.768686 c 3.2104,4.874091 2.799208,12.0219 0.905199,13.996706 -3.11833,3.251356 -2.220163,8.320028 1.16031,11.588943 -6.927809,4.617186 -13.59911,7.331873 -18.77803,5.952871 C 14.671542,38.550048 15.01422,38.298574 13.507364,36.752429 6.9579568,37.134795 9.0582814,28.410447 8.9765726,26.225 7.8219833,23.405813 5.2800583,17.500856 6.8111203,14.298356 Z"
         id="path859"
         sodipodi:nodetypes="cccsccccc" />
      <path
         style="display:inline;fill:#e6e6e6;fill-opacity:1;stroke:#000000;stroke-width:0.672791;stroke-linecap:round;stroke-linejoin:miter;stroke-miterlimit:4;stroke-dasharray:none;stroke-opacity:1"
         d="M 6.6840289,6.3582263 C 15.873206,-0.52817831 24.463746,3.8355099 31.763791,7.768686"
         id="path861"
         sodipodi:nodetypes="cc" />
      <path
         style="display:inline;fill:#e6e6e6;fill-opacity:1;stroke:#000000;stroke-width:0.659598;stroke-linecap:round;stroke-linejoin:round;stroke-miterlimit:4;stroke-dasharray:none;stroke-opacity:1"
         d="M 6.3397951,10.999673 C 17.727698,1.5003155 31.715006,11.831375 34.096747,16.334674"
         id="path863"
         sodipodi:nodetypes="cc" />
      <path
         style="display:inline;fill:#e6e6e6;fill-opacity:1;stroke:#000000;stroke-width:0.659598;stroke-linecap:butt;stroke-linejoin:miter;stroke-miterlimit:4;stroke-dasharray:none;stroke-opacity:1"
         d="M 6.7111755,13.0324 C 17.81326,4.0383418 27.408765,14.050644 29.631654,19.228924 c 1.726645,-1.863027 3.110466,2.408847 3.414892,1.993536"
         id="path865"
         sodipodi:nodetypes="ccc" />
      <path
         style="display:inline;fill:#e6e6e6;fill-opacity:1;stroke-width:0.041401;stroke-linecap:round;stroke-linejoin:round;stroke-miterlimit:4;stroke-dasharray:none"
         d="m 13.353132,15.259519 c -0.07949,-0.01954 -0.101285,-0.05143 -0.117949,-0.172595 -0.0088,-0.06413 -0.01913,-0.116599 -0.02291,-0.116599 -0.0038,0 -0.03716,0.01571 -0.07419,0.03492 -0.06122,0.03176 -0.06878,0.03123 -0.08349,-0.0059 -0.02446,-0.06172 -0.02247,-0.189309 0.0032,-0.205178 0.02448,-0.01513 0.105486,0.05555 0.124254,0.108419 0.01934,0.05449 0.03802,0.01472 0.09608,-0.20454 0.04655,-0.175812 0.06637,-0.216496 0.119814,-0.245988 0.06038,-0.03332 0.06677,-0.03201 0.111909,0.02298 0.04512,0.05497 0.04691,0.07793 0.03119,0.400469 -0.0092,0.188188 -0.02736,0.35541 -0.0404,0.371606 -0.02412,0.02994 -0.06291,0.0332 -0.147517,0.0124 z"
         id="path874" />
      <path
         style="display:inline;fill:#e6e6e6;fill-opacity:1;stroke-width:0.041401;stroke-linecap:round;stroke-linejoin:round;stroke-miterlimit:4;stroke-dasharray:none"
         d="m 14.227686,14.896708 c -0.0081,-0.04049 -0.01517,-0.106742 -0.01571,-0.147231 -0.0013,-0.09705 -0.0755,-0.233393 -0.131321,-0.2413 -0.140463,-0.0199 -0.21114,-0.05081 -0.238129,-0.104138 -0.04273,-0.08444 -0.03654,-0.158842 0.01553,-0.186711 0.07595,-0.04064 0.117438,-0.02819 0.193099,0.05799 0.03978,0.0453 0.08273,0.07594 0.09546,0.06808 0.01272,-0.0079 0.04201,-0.05833 0.06508,-0.112152 0.02307,-0.05382 0.05929,-0.112255 0.0805,-0.129853 0.05459,-0.04531 0.04779,-0.129273 -0.01675,-0.206988 -0.03042,-0.03662 -0.06281,-0.09839 -0.07198,-0.13726 -0.04603,-0.195202 -0.06514,-0.246321 -0.09013,-0.241181 -0.01686,0.0035 -0.0368,-0.05743 -0.05217,-0.159289 -0.02737,-0.181418 -0.05537,-0.204219 -0.188634,-0.153554 -0.06398,0.02433 -0.06591,0.02977 -0.05208,0.146498 0.01669,0.140944 0.03085,0.159654 0.137103,0.181209 0.07185,0.01458 0.07929,0.02415 0.08502,0.109368 0.0089,0.132736 0.02455,0.191528 0.06046,0.22743 0.01723,0.01723 0.03849,0.05986 0.04724,0.09473 0.01433,0.05711 0.0079,0.0656 -0.06446,0.08559 -0.06723,0.01856 -0.101166,0.01201 -0.207534,-0.04007 -0.06994,-0.03425 -0.184902,-0.08763 -0.255473,-0.118624 -0.07057,-0.031 -0.167464,-0.09138 -0.215316,-0.134185 -0.04785,-0.0428 -0.130007,-0.08941 -0.182567,-0.10356 -0.08441,-0.02273 -0.09556,-0.03388 -0.09556,-0.09549 0,-0.05895 0.0092,-0.06976 0.05965,-0.06976 0.08806,0 0.223035,-0.06292 0.223035,-0.103976 0,-0.04393 -0.0554,-0.07506 -0.172737,-0.09707 l -0.08942,-0.01677 0.12519,-0.09056 c 0.147813,-0.106927 0.207639,-0.117056 0.207639,-0.03515 0,0.03131 -0.01325,0.06245 -0.02945,0.06919 -0.03785,0.01576 0.04137,0.08206 0.122369,0.102398 0.04634,0.01164 0.0723,-0.0026 0.132944,-0.07272 0.06167,-0.07134 0.09828,-0.09094 0.201541,-0.107918 0.1387,-0.0228 0.185076,0.004 0.185076,0.106854 0,0.02833 0.0166,0.06528 0.03689,0.08212 0.05973,0.04957 0.111814,0.163304 0.07561,0.165102 -0.01653,7.91e-4 -0.0047,0.01162 0.0262,0.024 0.05151,0.02061 0.05316,0.02595 0.01964,0.06329 -0.05332,0.0594 -0.02597,0.170448 0.06081,0.246908 l 0.07353,0.06478 0.05304,-0.06478 c 0.05441,-0.06645 0.074,-0.03878 0.03032,0.04283 -0.02111,0.03944 -0.0099,0.05437 0.08245,0.110176 0.05878,0.0355 0.106868,0.07258 0.106868,0.08239 0,0.0098 -0.03673,0.01784 -0.08162,0.01784 -0.102244,0 -0.151382,0.06868 -0.08841,0.123572 0.09068,0.07904 0.147788,0.09234 0.325156,0.07572 0.120711,-0.01132 0.185188,-0.0079 0.208038,0.0111 0.04044,0.03356 0.06598,6.59e-4 0.03611,-0.0466 -0.0119,-0.01882 -0.02181,-0.04746 -0.022,-0.06366 -5.28e-4,-0.04673 0.06612,-0.03417 0.09387,0.01767 0.03301,0.06167 0.06119,0.05965 0.08204,-0.0059 0.0142,-0.04461 0.02019,-0.03623 0.03784,0.05288 0.01153,0.05824 0.01621,0.121842 0.0104,0.141342 -0.01169,0.03919 0.0299,0.104818 0.07608,0.120051 0.02042,0.0067 0.01622,0.01819 -0.01347,0.03673 -0.03786,0.02364 -0.04871,0.01428 -0.08857,-0.07642 -0.02498,-0.05685 -0.05183,-0.10346 -0.05965,-0.103583 -0.0078,-1.22e-4 -0.04161,0.02516 -0.07508,0.05618 l -0.06086,0.0564 -0.06281,-0.09064 -0.06281,-0.09063 -0.07018,0.0519 c -0.05314,0.0393 -0.105007,0.05242 -0.213547,0.05402 -0.128656,0.0019 -0.145498,0.0079 -0.164161,0.05834 -0.02158,0.05834 -0.01158,0.126343 0.02742,0.186476 0.01897,0.02925 0.0343,0.02376 0.09444,-0.03385 0.03948,-0.03783 0.07179,-0.08269 0.07179,-0.09971 0,-0.0412 0.127726,-0.04038 0.1621,0.0011 0.01541,0.01857 0.02022,0.0635 0.01148,0.107226 -0.01203,0.06015 -0.0379,0.08684 -0.128866,0.132936 -0.0626,0.03172 -0.129352,0.05767 -0.148344,0.05767 -0.01899,0 -0.04124,0.02114 -0.04944,0.04697 -0.02533,0.0798 -0.08205,0.117925 -0.175459,0.117925 -0.08151,0 -0.09093,-0.0066 -0.104324,-0.07362 z m 0.164498,-0.03828 c 0.05012,-0.06603 0.03918,-0.167113 -0.02447,-0.22611 -0.0315,-0.02919 -0.06445,-0.08169 -0.07322,-0.11666 -0.02062,-0.08215 -0.05277,-0.08153 -0.06229,0.0012 -0.03013,0.261876 0.0655,0.46605 0.159989,0.341576 z m -0.368038,-1.02473 c -5.28e-4,-0.118529 -0.02753,-0.147031 -0.102137,-0.107939 l -0.06148,0.03221 0.04631,0.07614 c 0.06135,0.100879 0.117785,0.100679 0.117309,-3.95e-4 z"
         id="path876" />
      <path
         style="display:inline;fill:#e6e6e6;fill-opacity:1;stroke-width:0.041401;stroke-linecap:round;stroke-linejoin:round;stroke-miterlimit:4;stroke-dasharray:none"
         d="m 13.791973,12.823829 c -0.303423,0.09259 -0.552144,0.312285 -0.80354,0.498721 -0.353748,0.289473 -0.681601,0.616468 -0.960476,0.978469 -0.03078,0.120347 0.09251,0.226236 0.128367,0.336282 0.410869,0.783512 0.875039,1.55527 1.528659,2.16262 0.21858,0.207718 0.434502,0.420749 0.670518,0.608278 0.1157,0.0096 0.124416,-0.152108 0.200649,-0.213486 0.162754,-0.203652 0.409875,-0.368912 0.67708,-0.334019 0.101562,-0.01837 0.244517,0.03869 0.32055,-0.04841 0.01107,-0.06359 -0.04708,-0.116063 -0.07132,-0.171157 -0.05027,-0.03555 -0.133396,-0.07061 -0.0974,-0.144792 -0.0043,-0.112041 -0.229274,-0.150282 -0.196554,-0.0094 -0.04532,-0.06982 -0.151825,-0.07609 -0.165865,-0.169408 -0.08043,-0.08495 -0.227814,-0.108941 -0.245462,-0.246429 -0.07351,-0.302533 -0.05071,-0.629888 0.10815,-0.901728 0.234806,-0.470296 0.693093,-0.771206 1.159006,-0.981085 0.08241,-0.161038 -0.210555,-0.08743 -0.303694,-0.112752 -0.210443,0.0038 -0.421705,-0.04705 -0.632469,-0.04175 -0.131709,0.0021 -0.222379,0.128071 -0.344428,0.13941 -0.0737,-0.09641 0.09568,-0.226992 -0.02388,-0.300351 -0.304677,-0.182673 -0.517011,-0.477819 -0.646345,-0.805172 -0.02884,-0.09546 -0.148505,-0.07991 -0.204513,-0.130207 0.0055,-0.05832 -0.03186,-0.120142 -0.09703,-0.113645 z m 1.402424,3.67517 c 0.0293,0.03735 0.0016,0.04271 0,0 z m -0.0311,0.114196 c -0.01175,0.02108 -0.0188,0.0058 0,0 z"
         id="path896" />
      <path
         style="display:inline;fill:#e6e6e6;fill-opacity:1;stroke-width:0.041401;stroke-linecap:round;stroke-linejoin:round;stroke-miterlimit:4;stroke-dasharray:none"
         d="m 13.931428,12.745889 c -0.69639,0.297182 -1.261462,0.826007 -1.758907,1.384664 -0.06844,0.09682 -0.229044,0.20009 -0.110681,0.322554 0.457983,0.877416 0.959148,1.761847 1.711987,2.423023 0.198831,0.171496 0.376297,0.379554 0.585973,0.532032 0.106952,-0.01654 0.129368,-0.172128 0.210704,-0.239766 0.167488,-0.213073 0.430871,-0.343577 0.704134,-0.3171 0.14042,-0.01118 0.278741,0.04016 0.412059,0.05455 0.09328,-0.08691 -0.07509,-0.173072 -0.120771,-0.240982 -0.137332,-0.130981 -0.26564,-0.284396 -0.458257,-0.329706 -0.131959,-0.06336 -0.323281,-0.09899 -0.341255,-0.276012 -0.152655,-0.529528 0.132251,-1.075508 0.528331,-1.417884 0.224319,-0.211631 0.507835,-0.345693 0.780814,-0.4744 0.02987,-0.150132 -0.222612,-0.0602 -0.319428,-0.08509 -0.502204,0.0013 -1.074106,-0.111113 -1.399066,-0.538075 -0.18175,-0.228467 -0.277893,-0.514018 -0.369913,-0.781487 -0.0077,-0.02752 -0.03726,-0.01108 -0.05572,-0.01632 z"
         id="path898" />
      <path
         style="display:inline;fill:#e6e6e6;fill-opacity:1;stroke-width:0.041401;stroke-linecap:round;stroke-linejoin:round;stroke-miterlimit:4;stroke-dasharray:none"
         d="m 16.754452,14.110677 c -0.762014,0.02523 -1.540993,0.451265 -1.872232,1.154984 -0.115585,0.276696 -0.171929,0.626205 -0.0079,0.893556 0.41617,0.256504 0.928283,0.363588 1.413559,0.289171 0.766286,-0.103844 1.511697,-0.393844 2.292114,-0.311479 0.253119,0.009 0.50885,0.05665 0.761003,0.03814 0.08304,-0.08424 -0.04261,-0.200899 -0.06914,-0.287529 -0.412975,-0.777228 -1.068243,-1.504378 -1.953033,-1.71836 -0.184464,-0.04424 -0.374738,-0.06402 -0.564356,-0.05848 z"
         id="path900" />
      <path
         style="display:inline;fill:#e6e6e6;fill-opacity:1;stroke-width:0.041401;stroke-linecap:round;stroke-linejoin:round;stroke-miterlimit:4;stroke-dasharray:none"
         d="m 13.931428,12.745889 c -0.69639,0.297182 -1.261462,0.826007 -1.758907,1.384664 -0.06844,0.09682 -0.229044,0.20009 -0.110681,0.322554 0.457983,0.877416 0.959148,1.761847 1.711987,2.423023 0.198831,0.171496 0.376297,0.379554 0.585973,0.532032 0.106952,-0.01654 0.129368,-0.172128 0.210704,-0.239766 0.167488,-0.213073 0.430871,-0.343577 0.704134,-0.3171 0.14042,-0.01118 0.278741,0.04016 0.412059,0.05455 0.09328,-0.08691 -0.07509,-0.173072 -0.120771,-0.240982 -0.137332,-0.130981 -0.26564,-0.284396 -0.458257,-0.329706 -0.131959,-0.06336 -0.323281,-0.09899 -0.341255,-0.276012 -0.152655,-0.529528 0.132251,-1.075508 0.528331,-1.417884 0.224319,-0.211631 0.507835,-0.345693 0.780814,-0.4744 0.02987,-0.150132 -0.222612,-0.0602 -0.319428,-0.08509 -0.502204,0.0013 -1.074106,-0.111113 -1.399066,-0.538075 -0.18175,-0.228467 -0.277893,-0.514018 -0.369913,-0.781487 -0.0077,-0.02752 -0.03726,-0.01108 -0.05572,-0.01632 z"
         id="path902" />
      <path
         style="display:inline;fill:#e6e6e6;fill-opacity:1;stroke-width:0.041401;stroke-linecap:round;stroke-linejoin:round;stroke-miterlimit:4;stroke-dasharray:none"
         d="m 13.769198,12.883826 c -0.669879,0.350475 -1.229324,0.881184 -1.705537,1.4621 0.486162,0.917473 0.998902,1.853471 1.799241,2.538808 0.172279,0.147665 0.343323,0.34514 0.512982,0.468299 0.177398,-0.327841 0.52671,-0.61607 0.920701,-0.550047 0.104471,-0.0026 0.22878,0.0269 0.32285,0.02383 -0.153299,-0.193291 -0.332639,-0.393215 -0.579677,-0.46065 -0.172537,-0.05371 -0.338817,-0.17409 -0.342589,-0.372127 -0.136224,-0.604621 0.26125,-1.188411 0.729991,-1.531436 0.181801,-0.137291 0.389012,-0.23437 0.598312,-0.321563 -0.528974,-0.02022 -1.137673,0.0046 -1.544272,-0.397202 -0.279776,-0.246398 -0.441947,-0.594902 -0.531505,-0.950976 -0.06017,0.03032 -0.120332,0.06064 -0.180497,0.09096 z"
         id="path908" />
      <path
         id="path924"
         style="display:inline;fill:#e6e6e6;fill-opacity:1;stroke:#000000;stroke-width:0.659598;stroke-linecap:round;stroke-linejoin:round;stroke-miterlimit:4;stroke-dasharray:none;stroke-opacity:1"
         d="m 13.507364,36.752429 c 10.813641,-1.493591 11.046337,-9.202507 16.12429,-17.523505 m -2.413501,-3.792182 c -1.096473,4.223831 -4.477313,11.40958 -10.050259,10.463311 -2.811929,-0.477457 -5.836099,-1.591957 -8.2354414,0.2316 m 0.091611,1.378102 c 2.7213984,-1.127856 3.6524704,-0.832203 5.4652264,0.09423" />
      <path
         style="display:inline;fill:#e6e6e6;fill-opacity:1;stroke:#000000;stroke-width:0.659598;stroke-linecap:round;stroke-linejoin:round;stroke-miterlimit:4;stroke-dasharray:none;stroke-opacity:1"
         d="m 27.965922,22.760277 c 0.603234,0.729463 1.709119,2.150869 4.723983,-1.59841"
         id="path926"
         sodipodi:nodetypes="cc" />
      <path
         id="path928"
         d="m 11.272221,13.568089 c 4.631448,-3.110365 8.34688,0.940066 10.0974,1.729707"
         style="fill:#e6e6e6;fill-opacity:1;stroke:#000000;stroke-width:0.659598;stroke-linecap:round;stroke-linejoin:round;stroke-miterlimit:4;stroke-dasharray:none;stroke-opacity:1" />
      <path
         id="path930"
         d="m 14.973208,14.964649 c 1.532179,-0.687029 2.959075,-0.847641 3.931129,1.265957"
         style="fill:#e6e6e6;fill-opacity:1;stroke:#000000;stroke-width:0.659598;stroke-linecap:round;stroke-linejoin:round;stroke-miterlimit:4;stroke-dasharray:none;stroke-opacity:1" />
      <path
         id="path1468"
         d="M 8.8572429,16.473823 A 0.75382445,0.82449546 0 0 1 8.1034184,17.298319 0.75382445,0.82449546 0 0 1 7.3495943,16.473823 0.75382445,0.82449546 0 0 1 8.1034184,15.649328 0.75382445,0.82449546 0 0 1 8.8572429,16.473823"
         style="fill:#e6e6e6;fill-opacity:1;stroke:#000000;stroke-width:0.659598;stroke-linecap:round;stroke-linejoin:round;stroke-miterlimit:4;stroke-dasharray:none;stroke-opacity:1" />
      <path
         id="path1466"
         d="m 8.9062795,14.006874 c -0.6965463,0.05844 -1.673308,0.0499 -2.1436897,0.447583"
         style="fill:#e6e6e6;fill-opacity:1;stroke:#000000;stroke-width:0.659598;stroke-linecap:round;stroke-linejoin:round;stroke-miterlimit:4;stroke-dasharray:none;stroke-opacity:1" />
      <path
         id="path936"
         d="m 9.4339569,15.326068 c -0.6965462,0.05844 -1.673308,0.0499 -2.1436896,0.447583"
         style="fill:#e6e6e6;fill-opacity:1;stroke:#000000;stroke-width:0.659598;stroke-linecap:round;stroke-linejoin:round;stroke-miterlimit:4;stroke-dasharray:none;stroke-opacity:1" />
      <path
         style="fill:none;fill-opacity:1;stroke:#000000;stroke-width:0.659598;stroke-linecap:round;stroke-linejoin:round;stroke-miterlimit:4;stroke-dasharray:none;stroke-opacity:1"
         d="m 16.717449,15.634294 a 0.75382445,0.82449546 0 0 1 -0.753825,0.824496 0.75382445,0.82449546 0 0 1 -0.753825,-0.824496 0.75382445,0.82449546 0 0 1 0.753825,-0.824495 0.75382445,0.82449546 0 0 1 0.753825,0.824495"
         id="path1470" />
      <path
         sodipodi:nodetypes="sccs"
         inkscape:connector-curvature="0"
         id="path977"
         d="M 8.9610992,13.902623 C 9.4326421,12.99056 15.078505,21.995058 14.971248,23.210228 13.373813,25.8743 5.875832,23.815675 5.9449394,21.760838 6.7270462,20.535209 8.4267611,14.936145 8.9610992,13.902623 Z"
         style="display:inline;fill:#000000;fill-opacity:1;stroke:#000000;stroke-width:0.231846;stroke-linecap:round;stroke-linejoin:round;stroke-miterlimit:4;stroke-dasharray:none;stroke-opacity:1" />
    </g>
    <rect
       y="137.47292"
       x="655.86975"
       height="106.26523"
       width="590.36243"
       id="rect1092"
       style="fill:#f2f2f2;stroke-width:2.03998;stroke-linecap:round;stroke-linejoin:round" />
    <g
       aria-label="RIOBA PROJECT"
       id="text1090"
       style="font-style:normal;font-variant:normal;font-weight:bold;font-stretch:normal;font-size:75.5664px;line-height:1.25;font-family:'Bodoni 72';-inkscape-font-specification:'Bodoni 72 Bold';fill:#000000;fill-opacity:1;stroke:none;stroke-width:0.393574">
      <path
         d="m 724.33658,209.23266 q 0,4.23172 -5.51634,4.23172 -6.95211,0 -11.10826,-4.38285 -3.24936,-3.40049 -3.70276,-7.25438 l -0.75566,-6.19644 q -0.75566,-5.89418 -2.79596,-8.23674 -1.96472,-2.34256 -6.42314,-2.26699 v 17.15357 q 0,5.96975 0.0756,6.42314 0,1.28463 1.05793,1.8136 1.05793,0.4534 4.00502,0.4534 1.8136,0 1.8136,0.68009 0,0.60453 -0.9068,0.60453 l -7.32994,-0.0756 q 0,0 -1.20906,0 -1.3602,0.0756 -2.56926,0.0756 h -5.44078 q -0.75566,0 -1.73803,-0.0756 -0.83123,0 -1.05793,0 l -3.47605,0.0756 q -1.05793,0 -1.05793,-0.60453 0,-0.68009 3.09822,-0.83123 2.56926,-0.15113 3.02266,-1.20906 0.2267,-0.52896 0.2267,-3.17379 v -38.91669 q 0,-3.92946 -0.15114,-4.60955 -0.15113,-0.75567 -0.98236,-1.1335 -1.05793,-0.4534 -3.40049,-0.4534 -1.66246,0 -1.66246,-0.6801 0,-0.52896 0.6801,-0.60453 0.6801,-0.15113 3.62719,-0.15113 0,0 1.36019,0 1.3602,0.0756 2.64483,0.0756 h 2.49369 q 0.0756,0 1.58689,-0.0756 1.43576,0 2.72039,0 h 4.38285 q 10.5793,0 14.43318,1.66246 3.02266,1.28463 4.83625,3.92945 1.8136,2.64483 1.8136,5.81862 0,7.25437 -7.55664,10.73043 -3.32492,1.51132 -9.82363,2.26699 l -0.0756,0.4534 q 8.23674,0.52896 11.93949,4.38285 3.70275,3.77832 4.45842,12.31732 0.60453,6.80098 1.88916,8.539 1.28463,1.66246 2.64482,1.66246 1.1335,0 1.1335,-0.60453 0,-0.30226 -0.9068,-0.83123 -0.83123,-0.52896 -0.83123,-1.51133 0,-2.04029 2.26699,-2.04029 2.26699,0 2.26699,2.56926 z m -19.11829,-38.16103 q 0,-9.74807 -7.70778,-9.74807 -2.49369,0 -3.09822,1.66246 -0.37783,1.05793 -0.37783,8.23674 v 12.54402 q 5.89418,0.0756 8.539,-2.94709 2.64483,-3.02265 2.64483,-9.74806 z"
         style="stroke-width:0.393574"
         id="path2914" />
      <path
         d="m 748.26988,211.65078 q 0,0.60453 -0.98236,0.60453 -0.52897,0 -0.98237,-0.0756 -4.53398,-0.2267 -7.78333,-0.2267 -3.40049,0 -9.97477,0.2267 -2.19142,0.0756 -3.24935,0.0756 -1.1335,0 -1.1335,-0.68009 0,-0.37783 0.37783,-0.4534 0.4534,-0.0756 2.94709,-0.15113 2.34256,-0.4534 2.72039,-1.3602 0.37783,-0.98236 0.37783,-6.12088 v -36.34744 q 0,-1.43576 0,-2.79595 -0.0756,-1.3602 -0.0756,-1.28463 0,-1.88916 -3.77832,-1.88916 -2.11586,0 -2.11586,-0.52897 0,-0.52896 0.30226,-0.60453 0.30227,-0.0756 1.96473,-0.0756 -0.75566,0 2.72039,0.0756 3.47605,0.0756 5.96975,0.0756 h 3.85388 q 1.20906,0 3.40049,-0.0756 2.26699,-0.15113 3.17379,-0.15113 h 0.75566 q 0.98237,0 0.98237,0.60453 0,0.4534 -0.37784,0.60453 -0.30226,0.0756 -2.26699,0.15114 -2.34256,0.15113 -2.87152,0.98236 l -0.2267,1.43576 v 42.69502 q 0,3.24935 0.6801,3.85388 0.75566,0.60453 4.91181,0.83123 0.6801,0.0756 0.6801,0.60453 z"
         style="stroke-width:0.393574"
         id="path2916" />
      <path
         d="m 800.25484,186.10934 q 0,11.33496 -7.10324,19.19387 -7.02768,7.78334 -17.30471,7.78334 -10.05033,0 -17.22914,-7.93448 -7.1788,-7.93447 -7.1788,-19.1183 0,-11.48609 7.10324,-19.19386 7.1788,-7.70777 17.7581,-7.70777 10.20146,0 17.07801,7.78334 6.87654,7.70777 6.87654,19.19386 z m -13.29969,1.20906 q 0,-15.03771 -3.55162,-22.21652 -2.34256,-4.68511 -7.40551,-4.68511 -5.13851,0 -8.23673,6.57427 -3.02266,6.57428 -3.02266,17.60697 0,16.02008 5.44078,23.95455 2.26699,3.32492 6.57428,3.32492 4.98738,0 7.02767,-4.76068 3.17379,-7.40551 3.17379,-19.7984 z"
         style="stroke-width:0.393574"
         id="path2918" />
      <path
         d="m 846.11893,198.5778 q 0,4.68511 -2.87153,8.0856 -2.87152,3.32492 -7.93447,4.45842 -4.00502,0.9068 -7.55664,1.05793 -3.55162,0.15113 -20.85633,0.15113 -2.41812,0 -2.87152,-0.0756 -0.4534,-0.0756 -0.4534,-0.52896 0,-0.6801 2.41813,-0.6801 2.49369,0 3.09822,-0.6801 0.60453,-0.75566 0.60453,-3.55162 l -0.0756,-43.22398 q 0,-2.19142 -3.47605,-2.26699 -2.64482,-0.0756 -2.64482,-0.6801 0,-0.68009 1.66246,-0.68009 1.58689,0.15113 3.09822,0.15113 h 18.13594 q 17.45583,0 17.45583,11.93949 0,9.8992 -12.99742,12.24176 l -0.15113,0.30226 q 7.63221,1.5869 10.5793,4.00502 4.83625,4.00502 4.83625,9.97477 z m -13.45082,-26.22154 q 0,-10.95713 -6.80098,-10.95713 -2.41812,0 -3.24935,0.2267 -1.66247,0.52896 -1.66247,2.34256 v 19.94953 q 6.72541,0 9.21911,-2.34256 2.49369,-2.34256 2.49369,-9.2191 z m 1.36019,25.8437 q 0,-10.65486 -6.12088,-12.39288 -2.41812,-0.6801 -6.95211,-0.6801 l 0.15114,4.38285 q 0,1.88916 -0.15114,5.36521 -0.0756,1.73803 -0.0756,6.49871 0,8.16117 0.4534,8.69014 0.60453,0.83123 3.40048,0.83123 9.29467,0 9.29467,-12.69516 z"
         style="stroke-width:0.393574"
         id="path2920" />
      <path
         d="m 900.99785,211.42408 q 0,0.60454 -0.60453,0.75567 -0.52897,0.0756 -2.87153,0.0756 -0.60453,0 -3.40049,-0.0756 -5.59191,-0.15113 -7.70777,-0.15113 -2.49369,0 -4.38285,0.0756 -3.77832,0.15113 -5.13851,0.15113 -2.0403,0 -2.0403,-0.75566 0,-0.75566 4.30729,-0.83123 1.05793,0 1.58689,-0.15113 1.20906,-0.15114 1.20906,-0.9068 0,-0.37783 -0.90679,-3.17379 l -1.5869,-4.91181 q -0.4534,-1.66246 -1.96472,-6.12088 h -1.3602 l -5.89418,-0.0756 q -3.17379,-0.0756 -6.72541,0.0756 -0.68009,1.51133 -2.56925,6.80097 l -1.66247,4.91182 q -0.37783,1.1335 -0.37783,1.81359 0,1.28463 1.66246,1.66246 0.37784,0.0756 3.70276,0.30227 1.05793,0.0756 1.05793,0.6801 0,0.68009 -1.3602,0.68009 l -12.46845,-0.0756 q -0.4534,0.0756 -0.98237,0.0756 -1.05793,0 -1.05793,-0.75566 0,-0.4534 2.34256,-0.60453 3.02266,-0.15113 3.85389,-1.1335 0.83123,-0.98236 2.72039,-6.34757 1.43576,-3.77832 4.15615,-11.18383 l 9.14353,-25.16361 q 0.6801,-1.66246 1.88916,-5.21408 0.83123,-2.56926 1.28463,-2.56926 0.4534,0 1.66246,3.47605 1.51133,4.45842 13.29969,35.21395 1.51133,3.92945 3.02266,8.01003 1.28462,3.47606 2.56925,4.23172 0.98237,0.60453 4.68512,0.52897 0.9068,0 0.9068,0.68009 z m -24.03012,-17.68253 q -0.0756,-0.2267 -0.52896,-1.43576 -3.02266,-8.76571 -4.38285,-12.31733 -0.37784,-0.98236 -1.05793,-2.87152 l -0.4534,-1.3602 q -1.3602,3.24936 -3.32492,8.99241 -2.19143,6.42314 -3.17379,8.9924 0.68009,0 1.66246,-0.0756 0.90679,0 1.66246,0 h 4.23172 q 1.73802,0 5.36521,0.0756 z"
         style="stroke-width:0.393574"
         id="path2922" />
      <path
         d="m 953.3748,171.97842 q 0,6.49871 -4.83625,10.50373 -4.83625,3.92946 -12.84629,3.92946 -2.04029,0 -5.74305,-0.52897 v 19.345 q 0,4.15615 0.52897,4.91182 0.60453,0.68009 4.23172,0.83123 2.04029,-0.0756 2.04029,0.68009 0,0.6801 -1.20906,0.6801 h -1.1335 q -0.37783,0 -3.55162,-0.0756 -3.09822,-0.0756 -6.42314,-0.0756 l -8.84127,0.0756 q -2.49369,0 -2.87153,-0.15113 -0.37783,-0.15113 -0.37783,-0.4534 0,-0.60453 1.20907,-0.60453 3.70275,-0.0756 4.38285,-0.6801 0.75566,-0.60453 0.75566,-3.47605 v -38.84113 q 0,-4.83625 -0.37783,-5.81861 -0.37783,-0.98236 -3.85389,-0.98236 -2.04029,0 -2.04029,-0.60454 0,-0.68009 1.88916,-0.68009 l 21.61199,-0.0756 q 7.93447,0 11.86392,2.41813 5.59192,3.47605 5.59192,9.67249 z m -12.16619,0.4534 q 0,-11.18382 -7.02768,-11.18382 -4.23172,0 -4.23172,3.70275 v 19.7984 q 3.09823,0 4.23172,-0.2267 2.19143,-0.37784 3.77832,-1.73803 3.24936,-2.87152 3.24936,-10.3526 z"
         style="stroke-width:0.393574"
         id="path2924" />
      <path
         d="m 1003.2829,209.23266 q 0,4.23172 -5.51637,4.23172 -6.95211,0 -11.10826,-4.38285 -3.24936,-3.40049 -3.70276,-7.25438 l -0.75566,-6.19644 q -0.75567,-5.89418 -2.79596,-8.23674 -1.96472,-2.34256 -6.42314,-2.26699 v 17.15357 q 0,5.96975 0.0756,6.42314 0,1.28463 1.05793,1.8136 1.05793,0.4534 4.00502,0.4534 1.8136,0 1.8136,0.68009 0,0.60453 -0.9068,0.60453 l -7.32994,-0.0756 q 0,0 -1.20906,0 -1.3602,0.0756 -2.56926,0.0756 h -5.44078 q -0.75567,0 -1.73803,-0.0756 -0.83123,0 -1.05793,0 l -3.47605,0.0756 q -1.05793,0 -1.05793,-0.60453 0,-0.68009 3.09822,-0.83123 2.56926,-0.15113 3.02266,-1.20906 0.2267,-0.52896 0.2267,-3.17379 v -38.91669 q 0,-3.92946 -0.15114,-4.60955 -0.15113,-0.75567 -0.98236,-1.1335 -1.05793,-0.4534 -3.40049,-0.4534 -1.66246,0 -1.66246,-0.6801 0,-0.52896 0.6801,-0.60453 0.6801,-0.15113 3.62719,-0.15113 0,0 1.36019,0 1.3602,0.0756 2.64482,0.0756 h 2.4937 q 0.0756,0 1.58689,-0.0756 1.43576,0 2.72039,0 h 4.38285 q 10.5793,0 14.43318,1.66246 3.02266,1.28463 4.83625,3.92945 1.8136,2.64483 1.8136,5.81862 0,7.25437 -7.55664,10.73043 -3.32492,1.51132 -9.82364,2.26699 l -0.0756,0.4534 q 8.23674,0.52896 11.93949,4.38285 3.70275,3.77832 4.45842,12.31732 0.60453,6.80098 1.88916,8.539 1.28463,1.66246 2.64482,1.66246 1.13348,0 1.13348,-0.60453 0,-0.30226 -0.90678,-0.83123 -0.83123,-0.52896 -0.83123,-1.51133 0,-2.04029 2.26701,-2.04029 2.267,0 2.267,2.56926 z m -19.11833,-38.16103 q 0,-9.74807 -7.70777,-9.74807 -2.49369,0 -3.09822,1.66246 -0.37783,1.05793 -0.37783,8.23674 v 12.54402 q 5.89418,0.0756 8.539,-2.94709 2.64482,-3.02265 2.64482,-9.74806 z"
         style="stroke-width:0.393574"
         id="path2926" />
      <path
         d="m 1053.8155,186.10934 q 0,11.33496 -7.1032,19.19387 -7.0277,7.78334 -17.3047,7.78334 -10.0503,0 -17.2292,-7.93448 -7.1788,-7.93447 -7.1788,-19.1183 0,-11.48609 7.1033,-19.19386 7.1788,-7.70777 17.7581,-7.70777 10.2014,0 17.078,7.78334 6.8765,7.70777 6.8765,19.19386 z m -13.2997,1.20906 q 0,-15.03771 -3.5516,-22.21652 -2.3425,-4.68511 -7.4055,-4.68511 -5.1385,0 -8.2367,6.57427 -3.0227,6.57428 -3.0227,17.60697 0,16.02008 5.4408,23.95455 2.267,3.32492 6.5743,3.32492 4.9874,0 7.0277,-4.76068 3.1737,-7.40551 3.1737,-19.7984 z"
         style="stroke-width:0.393574"
         id="path2928" />
      <path
         d="m 1086.9845,160.5679 q 0,0.6801 -0.9068,0.6801 h -0.076 q -0.7557,-0.0756 -1.8892,-0.0756 -2.4937,0 -2.9471,0.98236 -0.2266,0.37783 -0.2266,4.38285 v 33.92932 q 0,8.46343 -0.6801,11.03269 -1.058,3.92945 -6.6499,7.70777 -4.4584,3.02266 -8.8413,3.02266 -3.5516,0 -5.743,-1.81359 -2.1914,-1.8136 -2.1914,-4.76069 0,-2.26699 1.4357,-3.70275 1.5114,-1.51133 3.7784,-1.51133 1.9647,0 3.2493,1.28463 1.3602,1.28463 1.3602,3.24936 0,1.96472 -1.5869,4.08058 -0.4534,0.60453 -0.4534,1.05793 0,0.83123 1.3602,0.83123 3.4005,0 3.7783,-6.12088 0.076,-1.20906 0.076,-17.00244 v -30.75552 q 0,-1.20906 0,-2.41813 -0.076,-1.20906 -0.076,-1.20906 -0.1511,-1.28463 -1.0579,-1.66246 -0.9068,-0.4534 -3.6272,-0.52896 -1.738,-0.0756 -2.0403,-0.15114 -0.3023,-0.0756 -0.3023,-0.52896 0,-0.6801 1.1335,-0.6801 l 9.4458,0.0756 q -0.076,0 3.0983,-0.0756 3.476,-0.0756 7.1032,-0.0756 h 2.1914 q 1.2847,0 1.2847,0.75567 z"
         style="stroke-width:0.393574"
         id="path2930" />
      <path
         d="m 1131.1849,198.95563 q 0,0.15113 -0.076,7.02767 -0.076,3.62719 -0.1511,5.21409 0,1.58689 0,1.51132 -19.9495,-0.90679 -34.9117,-0.52896 l -6.3475,0.15113 q -1.3602,0 -1.3602,-0.60453 0,-0.4534 0.3022,-0.52896 0.3779,-0.0756 2.3426,-0.2267 3.5516,-0.2267 3.8539,-2.0403 0.1511,-0.98236 0.1511,-2.19142 V 168.4268 q 0,-4.53398 -0.076,-4.98738 -0.075,-1.20906 -0.7556,-1.66246 -0.6801,-0.4534 -2.796,-0.4534 -2.3425,0 -2.3425,-0.6801 0,-0.75566 2.0403,-0.75566 2.1158,0 5.8186,-0.0756 13.9042,-0.30226 22.7455,-0.15113 l 5.1385,0.0756 q 1.6624,0 4.0806,-0.30227 l 0.6801,8.23674 q 0.3778,3.92945 0.3778,4.83625 0,0.75566 -0.7557,0.75566 -0.7556,0 -0.9823,-1.96472 -0.6801,-5.21408 -4.2318,-7.55664 -3.476,-2.41813 -10.3526,-2.41813 -2.1158,0 -7.2543,0.2267 v 22.29209 q 8.3123,0.0756 10.4281,-1.1335 2.1915,-1.28463 2.9471,-6.49871 0.3779,-2.79595 1.1335,-2.79595 0.6801,0 0.6801,1.36019 0,1.3602 -0.2267,5.59191 -0.076,1.43577 -0.076,3.85389 0,6.49871 0.1512,9.82363 0.075,0.4534 0.075,1.1335 0,0.9068 -0.6801,0.9068 -0.5289,0 -0.68,-0.30227 -0.1512,-0.37783 -0.4534,-2.49369 -0.7557,-5.36522 -2.1159,-6.64984 -1.2846,-1.3602 -6.0453,-1.3602 h -5.1385 v 25.46588 l 4.8362,-0.0756 q 8.3123,-0.15113 10.1259,-0.37783 2.267,-0.30227 4.3829,-1.66246 1.8891,-1.51133 2.5692,-3.24936 0.7557,-1.73802 1.5869,-6.42314 0.2267,-1.1335 0.7557,-1.1335 0.6045,0 0.6045,1.1335 z"
         style="stroke-width:0.393574"
         id="path2932" />
      <path
         d="m 1178.467,195.63071 -0.076,1.28463 q 0,0.37783 -0.3779,4.76068 -0.3022,3.32492 -0.3022,5.13851 0,2.267 0.076,3.77832 0.076,0.52897 0.076,1.28463 0,0.83123 -0.3778,0.83123 -0.3779,0 -0.8313,-0.75566 -1.6624,-2.72039 -3.5516,-3.55162 -5.6675,4.83625 -12.1662,4.83625 -9.8992,0 -17.4558,-7.40551 -8.01,-7.8589 -8.01,-19.7984 0,-11.56165 7.1788,-19.26943 7.2543,-7.78334 18.0603,-7.78334 4.9874,0 8.9169,2.267 2.267,1.28462 3.3249,1.28462 1.5869,0 2.9471,-1.43576 0.9823,-1.05793 1.209,-1.05793 0.3023,0 0.3023,0.52897 0,0.2267 -0.076,0.6801 -0.4534,2.56925 -0.4534,6.34757 0,0.37784 0.076,3.09823 0,2.64482 0,3.55162 v 1.66246 q 0,1.36019 -0.7557,1.36019 -0.6045,0 -1.209,-2.94709 -2.7204,-13.60195 -12.4685,-13.60195 -7.7077,0 -11.1838,9.97477 -2.4181,6.80097 -2.4181,16.32234 0,14.13091 5.743,20.70519 3.0227,3.47606 7.9345,3.47606 10.6549,0 13.9798,-14.20649 0.5289,-2.34256 1.209,-2.34256 0.7557,0 0.6801,0.98237 z"
         style="stroke-width:0.393574"
         id="path2934" />
      <path
         d="m 1225.9015,173.94315 q 0,0.60453 -0.529,0.60453 -0.8312,0 -1.5113,-2.94709 -1.3602,-5.81861 -3.7783,-7.93447 -2.4182,-2.11586 -7.7078,-2.11586 -2.0403,0 -3.5516,0.15113 l 0.075,45.94437 q 0.076,1.88916 1.058,2.41813 0.9823,0.52896 5.2896,0.9068 0.8312,0.0756 0.8312,0.68009 0,0.75567 -1.209,0.75567 -0.2267,0 -1.1335,-0.0756 -1.1335,-0.0756 -1.8892,-0.0756 l -7.7833,-0.22669 -12.8463,0.22669 q -1.0579,0 -1.0579,-0.60453 0,-0.45339 0.3022,-0.52896 0.3023,-0.0756 2.4937,-0.15113 4.1562,-0.15114 4.4584,-1.96473 0.1512,-0.98236 0.1512,-15.33998 v -31.96459 q -0.8313,-0.0756 -1.9647,-0.0756 -6.0454,0 -8.8413,2.26699 -2.7204,2.19143 -3.5516,7.85891 -0.529,3.32492 -1.3602,3.32492 -0.6801,0 -0.6801,-0.9068 0,-0.60453 0.3022,-4.15615 0.6046,-7.40551 0.7557,-10.1259 h 1.1335 l 5.5163,-0.0756 q 0.2267,0 5.2141,0.15114 5.063,0.15113 12.8463,0.15113 4.3073,0 7.7078,-0.0756 3.4005,-0.0756 6.1964,-0.0756 2.4937,0 3.7783,-0.15114 0.2267,4.91182 1.1335,12.54403 0.1512,1.28463 0.1512,1.58689 z"
         style="stroke-width:0.393574"
         id="path2936" />
    </g>
    <rect
       style="fill:#f2f2f2;stroke-width:1.44248;stroke-linecap:round;stroke-linejoin:round"
       id="rect1102"
       width="590.36243"
       height="53.132614"
       x="655.86975"
       y="264.99118" />
    <g
       aria-label="Comfort e Termoscanning aperto e connesso"
       id="text1106"
       style="font-style:normal;font-variant:normal;font-weight:normal;font-stretch:normal;font-size:34.1099px;line-height:1.25;font-family:'Bodoni 72 Oldstyle';-inkscape-font-specification:'Bodoni 72 Oldstyle';fill:#000000;fill-opacity:1;stroke:none;stroke-width:0.393574">
      <path
         d="m 685.23992,291.57455 q 0,-0.0682 -0.0682,0.92097 -0.13644,1.97837 -0.13644,3.82031 0,0.20466 0.0682,0.85275 0.0682,0.61397 0.0682,1.50083 v 0.30699 q 0,0.44343 -0.27288,0.44343 -0.27288,0 -0.47754,-0.51165 -0.47754,-1.12563 -0.95508,-1.46672 -2.45591,2.14892 -5.90101,2.14892 -5.01415,0 -8.32282,-3.47921 -3.27455,-3.51332 -3.27455,-8.83446 0,-5.35526 3.00168,-8.73214 3.03578,-3.41099 7.81116,-3.41099 1.73961,0 2.76291,0.30699 1.0574,0.27288 2.59235,1.15974 0.75042,0.44342 1.12562,0.44342 0.30699,0 0.57987,-0.54575 0.44343,-0.95508 0.71631,-0.95508 0.27288,0 0.27288,0.27288 0,0.13644 -0.0682,0.44343 -0.37521,1.63727 -0.37521,6.13978 0,0.64809 -0.10233,0.75042 -0.10233,0.10233 -0.27288,0.10233 -0.3411,0 -0.44343,-0.64809 -0.44343,-2.72879 -1.26206,-4.05908 -1.67139,-2.72879 -5.25293,-2.72879 -2.7629,0 -4.36607,1.84193 -2.89934,3.30866 -2.89934,9.68721 0,5.69636 2.3877,8.83447 2.0807,2.72879 5.5258,2.72879 1.77372,0 3.24044,-0.85275 1.46673,-0.88685 2.25125,-2.38769 0.88686,-1.7396 1.26207,-3.7862 0.13644,-0.81864 0.44343,-0.81864 0.3411,0 0.3411,0.51165 z"
         style="stroke-width:0.393574"
         id="path2939" />
      <path
         d="m 702.10194,291.81332 q 0,3.30866 -2.01249,5.55992 -2.01248,2.21714 -5.01415,2.21714 -3.10401,0 -5.18471,-2.21714 -2.0807,-2.25126 -2.0807,-5.55992 0,-3.41099 2.01248,-5.66224 2.04659,-2.25126 5.08238,-2.25126 3.06989,0 5.11648,2.28537 2.08071,2.25125 2.08071,5.62813 z m -3.10401,-0.0341 q 0,-3.75209 -1.15973,-5.83279 -0.85275,-1.53495 -2.86523,-1.53495 -1.91016,0 -3.00168,1.97838 -1.0574,1.94426 -1.0574,5.42347 0,3.4451 1.12562,5.38937 1.15974,1.91015 3.20634,1.91015 1.56905,0 2.31947,-1.19385 1.43261,-2.25125 1.43261,-6.13978 z"
         style="stroke-width:0.393574"
         id="path2941" />
      <path
         d="m 727.12048,298.9764 q 0,0.27288 -0.57987,0.27288 -0.0682,0 -0.75042,-0.0341 -0.64808,-0.0341 -1.77371,-0.0341 -0.10233,0 -3.61565,0.0682 -0.44343,0 -0.44343,-0.23877 0,-0.27288 0.37521,-0.27288 h 0.27288 l 0.85275,-0.0341 q 0.51165,-0.0341 0.57987,-0.23877 0.10233,-0.20466 0.10233,-1.43261 v -8.45926 q 0,-1.97837 -0.54576,-2.79701 -0.51165,-0.85275 -1.77372,-0.85275 -0.88686,0 -1.67138,0.54576 -0.75042,0.51165 -1.05741,1.33029 -0.13644,0.51165 -0.13644,3.7862 v 6.44677 q 0,1.12562 0.0341,1.29617 0.10233,0.40932 0.61398,0.40932 h 0.98919 q 0.44342,0 0.44342,0.27288 0,0.23877 -0.51164,0.23877 h -0.23877 q -0.3411,-0.0682 -2.31948,-0.0682 -0.68219,0 -1.84193,0.0341 -1.12563,0.0341 -1.3644,0.0341 h -0.3752 q -0.40932,0 -0.40932,-0.27288 0,-0.17055 0.20466,-0.20466 0.20466,-0.0341 1.3644,-0.0341 0.54576,-0.0341 0.57987,-0.3411 l 0.0341,-0.47754 v -9.51666 q 0,-1.97837 -0.51165,-2.72879 -0.47754,-0.75042 -1.73961,-0.75042 -1.26206,0 -2.11481,0.78453 -0.81864,0.78453 -0.81864,1.97837 v 9.68722 q 0,1.02329 0.13644,1.22795 0.17055,0.17055 1.0233,0.17055 h 0.27288 q 0.20466,-0.0341 0.37521,-0.0341 0.37521,0 0.37521,0.27288 0,0.23877 -0.44343,0.23877 h -0.3411 q -0.81864,-0.10233 -2.55824,-0.0682 l -3.34277,0.0682 q -0.47754,0 -0.47754,-0.27288 0,-0.23877 0.44343,-0.23877 1.29617,0 1.50083,-0.10233 0.20466,-0.13644 0.23877,-0.44343 v -8.86857 q 0,-2.55824 -0.10233,-3.00167 -0.10233,-0.44343 -0.98919,-0.44343 h -0.47753 q -0.30699,0.0341 -0.64809,0.0341 -0.44343,0 -0.44343,-0.23877 0,-0.20466 0.13644,-0.23877 0.17055,-0.0341 1.12563,-0.10233 0.78452,-0.0341 1.94426,-0.40932 1.19385,-0.37521 1.3644,-0.64809 0.3752,-0.37521 0.54575,-0.37521 0.17055,0 0.20466,0.27288 0.0341,0.27288 0.0682,1.91016 1.3644,-2.18304 4.19552,-2.18304 3.03578,0 3.68387,2.28537 1.33029,-2.28537 4.26374,-2.28537 2.52413,0 3.41099,1.80783 0.47754,0.95508 0.47754,3.17222 v 8.42515 q 0,1.15973 0.10233,1.29617 0.13644,0.10233 1.09151,0.17055 l 0.61398,-0.0341 q 0.37521,-0.0341 0.37521,0.23877 z"
         style="stroke-width:0.393574"
         id="path2943" />
      <path
         d="m 739.43842,277.72593 q 0,0.71631 -0.44343,1.19385 -0.40931,0.44343 -1.09151,0.44343 -0.64809,0 -1.09152,-0.40932 -0.44343,-0.40932 -0.44343,-1.0233 0,-0.51165 0.44343,-1.19384 0.10233,-0.17055 0.10233,-0.30699 0,-0.78453 -1.12563,-0.78453 -1.91015,0 -2.52413,2.45591 -0.30699,1.29618 -0.30699,4.53662 v 1.67138 h 2.25125 q 0.6822,0 0.6822,0.30699 0,0.30699 -0.88685,0.30699 h -2.0466 v 13.33697 q 0,0.47754 0.95508,0.47754 1.46672,-0.0341 1.60316,0.13644 0.0341,0.0341 0.0341,0.13644 0,0.23877 -0.40931,0.23877 -0.20466,0 -0.3411,-0.0341 l -2.79702,-0.0341 -3.71798,0.0682 q -0.61397,0 -0.61397,-0.23877 0,-0.27288 0.47754,-0.27288 1.70549,0 1.87604,-0.20466 0.0682,-0.0682 0.0682,-0.20466 l 0.0341,-0.44343 v -12.96176 q -1.26207,0 -1.46673,-0.0341 -0.20466,-0.0341 -0.20466,-0.27288 0,-0.30699 0.61398,-0.30699 h 1.09152 q 0.13644,-4.33195 1.15974,-6.24211 1.56905,-2.93345 4.70716,-2.93345 1.50084,0 2.45592,0.71631 0.95507,0.71631 0.95507,1.87604 z"
         style="stroke-width:0.393574"
         id="path2945" />
      <path
         d="m 751.46802,291.81332 q 0,3.30866 -2.01248,5.55992 -2.01248,2.21714 -5.01416,2.21714 -3.104,0 -5.1847,-2.21714 -2.0807,-2.25126 -2.0807,-5.55992 0,-3.41099 2.01248,-5.66224 2.04659,-2.25126 5.08237,-2.25126 3.0699,0 5.11649,2.28537 2.0807,2.25125 2.0807,5.62813 z m -3.104,-0.0341 q 0,-3.75209 -1.15973,-5.83279 -0.85275,-1.53495 -2.86524,-1.53495 -1.91015,0 -3.00167,1.97838 -1.0574,1.94426 -1.0574,5.42347 0,3.4451 1.12562,5.38937 1.15974,1.91015 3.20633,1.91015 1.56906,0 2.31948,-1.19385 1.43261,-2.25125 1.43261,-6.13978 z"
         style="stroke-width:0.393574"
         id="path2947" />
      <path
         d="m 764.00235,286.2193 q 0,0.78453 -0.47754,1.29617 -0.47754,0.51165 -1.22796,0.51165 -0.61398,0 -1.0233,-0.3411 -0.40932,-0.3752 -0.40932,-0.92096 0,-0.47754 0.30699,-0.81864 0.30699,-0.3411 0.30699,-0.47754 0,-0.51165 -0.75041,-0.51165 -0.95508,0 -1.63728,1.19385 -0.78453,1.3985 -0.78453,5.1847 v 6.75376 q 0,0.40932 0.27288,0.51165 0.30699,0.10233 1.77372,0.13644 0.37521,0.0682 0.37521,0.27288 0,0.23877 -0.44343,0.23877 -0.78453,0 -1.46673,-0.0341 -0.6822,-0.0341 -2.59235,-0.0341 -0.98919,0 -1.43262,0.0341 -0.44343,0.0341 -1.12562,0.0341 -0.54576,0 -0.54576,-0.23877 0,-0.23877 0.44343,-0.23877 h 0.47753 q 1.15974,0 1.3644,-0.27288 0.0682,-0.13644 0.0682,-1.26206 v -9.38023 q 0,-1.87604 -0.57987,-2.14892 -0.54576,-0.30699 -1.77371,-0.3411 -0.40932,0 -0.40932,-0.23877 0,-0.23877 0.3411,-0.23877 h 0.23877 q 0.51165,0 1.02329,0.0682 0.51165,0.0341 0.44343,0.0341 1.26207,0 2.79701,-0.71631 l 0.44343,-0.20466 0.27288,-0.10233 q 0.13644,0.81864 0.13644,1.63728 v 0.6822 q 1.09152,-2.3877 3.06989,-2.3877 1.09152,0 1.80783,0.6822 0.71631,0.64809 0.71631,1.63728 z"
         style="stroke-width:0.393574"
         id="path2949" />
      <path
         d="m 774.36803,297.16858 q 0,0.30699 -0.85275,1.09151 -1.46672,1.33029 -3.47921,1.33029 -1.87604,0 -2.83112,-0.95508 -0.54576,-0.54576 -0.54576,-3.20633 v -10.16475 q -0.0341,-0.3411 -0.37521,-0.37521 h -1.29617 q -0.75042,0 -0.75042,-0.23877 0,-0.23877 0.37521,-0.27288 2.66057,-0.23877 4.16141,-2.59235 0.20466,-0.30699 0.51164,-0.30699 0.23877,0 0.23877,0.23877 v 0.13644 q -0.0341,0.17055 -0.0341,0.57987 0,1.43262 0.13644,1.84193 0.30699,0.0682 1.0233,0.0682 1.87605,0 2.49002,-0.17055 0.13644,-0.0341 0.23877,-0.0341 0.27288,0 0.27288,0.30699 0,0.51165 -2.7629,0.51165 -0.47754,0 -1.39851,-0.0341 v 6.31033 q 0,4.77539 0.23877,6.00335 0.23877,1.19384 1.56906,1.19384 1.12563,0 2.52413,-1.26206 0.13644,-0.17055 0.30699,-0.17055 0.23877,0 0.23877,0.17055 z"
         style="stroke-width:0.393574"
         id="path2951" />
      <path
         d="m 793.80214,295.46308 q 0,0.3411 -0.54575,1.22796 -0.51165,0.85275 -1.05741,1.3985 -1.46673,1.50084 -3.92264,1.50084 -3.06989,0 -5.1506,-2.21714 -2.04659,-2.21715 -2.04659,-5.4917 0,-3.41099 1.94427,-5.69635 1.97837,-2.28537 4.91182,-2.28537 2.4218,0 4.05908,1.43262 1.63727,1.39851 1.7396,3.61565 -1.09151,0.17055 -2.89934,0.13644 l -2.38769,-0.0341 q -0.23877,0 -4.09319,0.10233 -0.17055,1.12563 -0.17055,2.14892 0,3.4451 1.29618,5.32115 1.33028,1.84193 3.71798,1.84193 1.36439,0 2.18303,-0.61398 0.81864,-0.61397 1.77372,-2.35358 0.13644,-0.27288 0.3752,-0.27288 0.27288,0 0.27288,0.23877 z m -2.96756,-6.95842 q -0.13644,-4.09319 -2.93345,-4.09319 -2.7629,0 -3.4451,4.09319 z"
         style="stroke-width:0.393574"
         id="path2953" />
      <path
         d="m 820.48408,281.54624 q 0,0.44343 -0.40932,0.44343 -0.40932,0 -0.57987,-0.88686 -0.0682,-0.61398 -0.13644,-1.22795 -0.23877,-1.22796 -0.78453,-2.08071 -0.7163,-1.12562 -2.35358,-1.43261 -1.05741,-0.20466 -1.70549,-0.17055 -1.60317,0.0682 -1.94427,0.10233 v 20.56827 q 0,1.22795 0.64809,1.53494 0.3411,0.17055 1.91015,0.20466 0.40932,0.0341 0.40932,0.30699 0,0.30699 -0.54576,0.30699 -0.27288,0 -0.47753,-0.0341 -2.0466,-0.0682 -2.89935,-0.0682 -1.12562,0 -2.11481,0.0341 -0.98919,0.0341 -2.52413,0.0341 -0.78453,0 -0.78453,-0.27288 0,-0.30699 1.46672,-0.3411 1.05741,0 1.3644,-0.44343 0.17055,-0.27288 0.17055,-1.3985 v -20.43183 q -3.37688,0.0341 -4.19552,0.3411 -2.14892,0.78452 -2.52413,4.19551 -0.10233,1.0233 -0.47754,1.0233 -0.40932,0 -0.40932,-0.71631 0,-0.37521 0.0341,-0.75041 l 0.0682,-0.78453 q 0.10233,-1.56906 0.30699,-4.1273 h 1.53495 l 6.95842,0.10233 q 1.22795,0.0341 3.82031,-0.0341 l 5.66224,-0.10233 q 0.0682,1.91015 0.44343,5.66224 0,0.10233 0.0341,0.27288 0.0341,0.13644 0.0341,0.17055 z"
         style="stroke-width:0.393574"
         id="path2955" />
      <path
         d="m 834.77399,295.46308 q 0,0.3411 -0.54576,1.22796 -0.51165,0.85275 -1.0574,1.3985 -1.46673,1.50084 -3.92264,1.50084 -3.06989,0 -5.1506,-2.21714 -2.04659,-2.21715 -2.04659,-5.4917 0,-3.41099 1.94426,-5.69635 1.97838,-2.28537 4.91183,-2.28537 2.4218,0 4.05908,1.43262 1.63727,1.39851 1.7396,3.61565 -1.09152,0.17055 -2.89934,0.13644 l -2.38769,-0.0341 q -0.23877,0 -4.09319,0.10233 -0.17055,1.12563 -0.17055,2.14892 0,3.4451 1.29618,5.32115 1.33028,1.84193 3.71797,1.84193 1.3644,0 2.18304,-0.61398 0.81864,-0.61397 1.77371,-2.35358 0.13644,-0.27288 0.37521,-0.27288 0.27288,0 0.27288,0.23877 z m -2.96756,-6.95842 q -0.13644,-4.09319 -2.93345,-4.09319 -2.7629,0 -3.4451,4.09319 z"
         style="stroke-width:0.393574"
         id="path2957" />
      <path
         d="m 847.14523,286.2193 q 0,0.78453 -0.47754,1.29617 -0.47754,0.51165 -1.22796,0.51165 -0.61397,0 -1.02329,-0.3411 -0.40932,-0.3752 -0.40932,-0.92096 0,-0.47754 0.30699,-0.81864 0.30699,-0.3411 0.30699,-0.47754 0,-0.51165 -0.75042,-0.51165 -0.95508,0 -1.63728,1.19385 -0.78452,1.3985 -0.78452,5.1847 v 6.75376 q 0,0.40932 0.27287,0.51165 0.30699,0.10233 1.77372,0.13644 0.37521,0.0682 0.37521,0.27288 0,0.23877 -0.44343,0.23877 -0.78453,0 -1.46673,-0.0341 -0.68219,-0.0341 -2.59235,-0.0341 -0.98919,0 -1.43261,0.0341 -0.44343,0.0341 -1.12563,0.0341 -0.54576,0 -0.54576,-0.23877 0,-0.23877 0.44343,-0.23877 h 0.47754 q 1.15973,0 1.36439,-0.27288 0.0682,-0.13644 0.0682,-1.26206 v -9.38023 q 0,-1.87604 -0.57986,-2.14892 -0.54576,-0.30699 -1.77372,-0.3411 -0.40932,0 -0.40932,-0.23877 0,-0.23877 0.3411,-0.23877 h 0.23877 q 0.51165,0 1.0233,0.0682 0.51165,0.0341 0.44343,0.0341 1.26206,0 2.79701,-0.71631 l 0.44343,-0.20466 0.27288,-0.10233 q 0.13644,0.81864 0.13644,1.63728 v 0.6822 q 1.09151,-2.3877 3.06989,-2.3877 1.09151,0 1.80782,0.6822 0.71631,0.64809 0.71631,1.63728 z"
         style="stroke-width:0.393574"
         id="path2959" />
      <path
         d="m 871.15487,298.9764 q 0,0.27288 -0.57986,0.27288 -0.0682,0 -0.75042,-0.0341 -0.64809,-0.0341 -1.77372,-0.0341 -0.10233,0 -3.61565,0.0682 -0.44343,0 -0.44343,-0.23877 0,-0.27288 0.37521,-0.27288 h 0.27288 l 0.85275,-0.0341 q 0.51165,-0.0341 0.57987,-0.23877 0.10233,-0.20466 0.10233,-1.43261 v -8.45926 q 0,-1.97837 -0.54576,-2.79701 -0.51165,-0.85275 -1.77371,-0.85275 -0.88686,0 -1.67139,0.54576 -0.75042,0.51165 -1.05741,1.33029 -0.13644,0.51165 -0.13644,3.7862 v 6.44677 q 0,1.12562 0.0341,1.29617 0.10233,0.40932 0.61398,0.40932 h 0.98919 q 0.44343,0 0.44343,0.27288 0,0.23877 -0.51165,0.23877 h -0.23877 q -0.3411,-0.0682 -2.31947,-0.0682 -0.6822,0 -1.84194,0.0341 -1.12563,0.0341 -1.36439,0.0341 h -0.37521 q -0.40932,0 -0.40932,-0.27288 0,-0.17055 0.20466,-0.20466 0.20466,-0.0341 1.36439,-0.0341 0.54576,-0.0341 0.57987,-0.3411 l 0.0341,-0.47754 v -9.51666 q 0,-1.97837 -0.51165,-2.72879 -0.47754,-0.75042 -1.7396,-0.75042 -1.26207,0 -2.11482,0.78453 -0.81863,0.78453 -0.81863,1.97837 v 9.68722 q 0,1.02329 0.13644,1.22795 0.17055,0.17055 1.02329,0.17055 h 0.27288 q 0.20466,-0.0341 0.37521,-0.0341 0.37521,0 0.37521,0.27288 0,0.23877 -0.44343,0.23877 h -0.3411 q -0.81864,-0.10233 -2.55824,-0.0682 l -3.34277,0.0682 q -0.47754,0 -0.47754,-0.27288 0,-0.23877 0.44343,-0.23877 1.29618,0 1.50084,-0.10233 0.20465,-0.13644 0.23876,-0.44343 v -8.86857 q 0,-2.55824 -0.10233,-3.00167 -0.10232,-0.44343 -0.98918,-0.44343 h -0.47754 q -0.30699,0.0341 -0.64809,0.0341 -0.44343,0 -0.44343,-0.23877 0,-0.20466 0.13644,-0.23877 0.17055,-0.0341 1.12563,-0.10233 0.78453,-0.0341 1.94426,-0.40932 1.19385,-0.37521 1.3644,-0.64809 0.37521,-0.37521 0.54576,-0.37521 0.17055,0 0.20466,0.27288 0.0341,0.27288 0.0682,1.91016 1.36439,-2.18304 4.19551,-2.18304 3.03579,0 3.68387,2.28537 1.33029,-2.28537 4.26374,-2.28537 2.52413,0 3.41099,1.80783 0.47754,0.95508 0.47754,3.17222 v 8.42515 q 0,1.15973 0.10233,1.29617 0.13644,0.10233 1.09152,0.17055 l 0.61398,-0.0341 q 0.3752,-0.0341 0.3752,0.23877 z"
         style="stroke-width:0.393574"
         id="path2961" />
      <path
         d="m 886.50859,291.81332 q 0,3.30866 -2.01248,5.55992 -2.01249,2.21714 -5.01416,2.21714 -3.104,0 -5.18471,-2.21714 -2.0807,-2.25126 -2.0807,-5.55992 0,-3.41099 2.01249,-5.66224 2.04659,-2.25126 5.08237,-2.25126 3.06989,0 5.11649,2.28537 2.0807,2.25125 2.0807,5.62813 z m -3.104,-0.0341 q 0,-3.75209 -1.15974,-5.83279 -0.85275,-1.53495 -2.86523,-1.53495 -1.91015,0 -3.00167,1.97838 -1.05741,1.94426 -1.05741,5.42347 0,3.4451 1.12563,5.38937 1.15974,1.91015 3.20633,1.91015 1.56905,0 2.31947,-1.19385 1.43262,-2.25125 1.43262,-6.13978 z"
         style="stroke-width:0.393574"
         id="path2963" />
      <path
         d="m 899.00881,294.8491 q 0,1.97838 -1.46673,3.37688 -1.43261,1.3644 -3.4451,1.3644 -1.15973,0 -2.83112,-0.81864 -0.44343,-0.23877 -0.78453,-0.23877 -0.47754,0 -0.7163,0.64809 -0.13644,0.40932 -0.37521,0.40932 -0.23877,0 -0.23877,-0.27288 0,-0.17055 0.0341,-0.40932 0.10233,-0.6822 0.10233,-2.01248 0,-0.10233 -0.0341,-0.81864 -0.0341,-0.71631 -0.0341,-0.95508 v -0.37521 q 0,-0.37521 0.23877,-0.37521 0.27288,0 0.30699,0.37521 0.20466,1.56906 0.88685,2.45592 1.3644,1.77371 3.64976,1.77371 1.22796,0 1.97838,-0.71631 0.75041,-0.7163 0.75041,-1.91015 0,-1.33029 -0.85274,-2.11481 -0.47754,-0.44343 -0.88686,-0.61398 -0.37521,-0.20466 -2.28536,-0.92097 -3.7862,-1.43262 -3.7862,-4.29785 0,-1.91015 1.29617,-3.20633 1.29618,-1.29618 3.20633,-1.29618 0.6822,0 2.0466,0.40932 0.3411,0.10233 0.61398,0.10233 0.7163,0 0.88685,-0.68219 0.10233,-0.3411 0.30699,-0.3411 0.23877,0 0.23877,0.27288 0,0.0341 -0.0341,0.20466 l -0.0341,1.43261 q -0.0341,0.81864 0.17055,2.62646 v 0.0682 q 0,0.27288 -0.27288,0.27288 -0.20466,0 -0.51165,-1.02329 -0.3752,-1.22796 -1.33028,-1.97838 -0.92097,-0.75042 -2.14893,-0.75042 -1.15973,0 -1.91015,0.71631 -0.75042,0.71631 -0.75042,1.80783 0,1.70549 2.28537,2.59235 3.54743,1.3985 4.5025,2.31947 1.22796,1.19385 1.22796,2.89934 z"
         style="stroke-width:0.393574"
         id="path2965" />
      <path
         d="m 913.34615,287.41314 q 0,1.56906 -1.53494,1.56906 -1.50084,0 -1.50084,-1.43262 0,-0.3752 0.3411,-1.12562 0.10233,-0.23877 0.10233,-0.47754 0,-0.6822 -0.71631,-1.12563 -0.6822,-0.44343 -1.7396,-0.44343 -2.0466,0 -3.17222,1.77372 -1.12563,1.77371 -1.12563,4.98004 0,3.61565 1.15974,5.59403 1.15973,1.94426 3.27455,1.94426 1.43261,0 2.55824,-0.88686 0.51165,-0.40931 1.33029,-1.56905 0.17055,-0.17055 0.30698,-0.17055 0.3411,0 0.3411,0.27288 0,0.44343 -1.19384,1.67138 -1.53495,1.60317 -3.92264,1.60317 -3.00167,0 -4.98005,-2.14892 -1.94426,-2.14893 -1.94426,-5.42348 0,-3.51332 2.0807,-5.79868 2.08071,-2.31948 5.21882,-2.31948 2.01248,0 3.54743,1.05741 1.56905,1.05741 1.56905,2.45591 z"
         style="stroke-width:0.393574"
         id="path2967" />
      <path
         d="m 928.42966,297.64612 q 0,0.57986 -1.22796,1.22795 -1.19385,0.61398 -2.31947,0.61398 -2.35359,0 -2.45592,-2.4218 -1.29617,2.52413 -4.02496,2.52413 -1.46673,0 -2.42181,-0.85275 -0.95507,-0.88686 -0.95507,-2.25125 0,-2.79701 3.37688,-4.43429 1.15973,-0.54576 4.02496,-1.09152 v -0.85274 q 0,-3.00167 -0.30699,-3.95675 -0.54575,-1.73961 -2.45591,-1.73961 -1.19384,0 -2.01248,0.64809 -0.78453,0.64809 -0.78453,1.63728 0,0.27288 0.40932,0.27288 0.44343,0 0.78453,0.40931 0.3411,0.40932 0.3411,0.92097 0,1.50084 -1.50084,1.50084 -0.78453,0 -1.29618,-0.51165 -0.51164,-0.54576 -0.51164,-1.3644 0,-1.60316 1.26206,-2.7629 1.39851,-1.26207 3.88853,-1.26207 3.75209,0 4.60484,2.0466 0.30699,0.78453 0.30699,3.104 v 6.37855 q 0,1.56906 0.0341,1.84194 0.17055,1.22795 0.98918,1.22795 0.95508,0 1.56906,-0.6822 0.3411,-0.3752 0.51165,-0.3752 0.17055,0 0.17055,0.20466 z m -6.00335,-3.61565 v -2.49003 q -2.55824,0.57987 -3.68387,1.53495 -1.09151,0.92097 -1.09151,2.49002 0,1.09152 0.61398,1.80783 0.64808,0.68219 1.60316,0.68219 1.46673,0 2.35358,-1.63727 0.20466,-0.37521 0.20466,-2.38769 z"
         style="stroke-width:0.393574"
         id="path2969" />
      <path
         d="m 943.86386,298.9764 q 0,0.27288 -0.51165,0.27288 h -0.40932 q -0.61398,-0.0682 -1.67138,-0.0682 -3.34277,0 -3.95675,0.0682 h -0.23877 q -0.44343,0 -0.44343,-0.23877 0,-0.17055 0.17055,-0.20466 0.20466,-0.0341 1.33029,-0.0682 0.64808,-0.0341 0.75041,-0.17055 0.10233,-0.17055 0.10233,-1.12562 v -6.54911 q 0,-3.71797 -0.27288,-4.43428 -0.57986,-1.53495 -2.31947,-1.53495 -1.70549,0 -2.86523,1.50084 -0.3411,0.44343 -0.3411,1.22795 l 0.0341,10.64229 q 0,0.40932 0.71631,0.44343 l 1.02329,0.0341 q 0.3411,0 0.3411,0.23877 0,0.23877 -0.40932,0.23877 h -0.54575 q -0.75042,-0.0682 -2.3877,-0.0682 -0.37521,0 -1.63727,0.0341 -1.22796,0.0341 -1.43262,0.0341 h -0.20466 q -0.51165,0 -0.51165,-0.23877 0,-0.23877 0.61398,-0.30699 0.44343,0 0.85275,0 0.51165,0 0.61398,-0.23877 l 0.10233,-0.51165 v -7.43595 q 0,-3.88853 -0.0682,-4.29785 -0.0682,-0.40932 -0.85275,-0.40932 -0.23877,0 -0.81864,0.0682 h -0.17055 q -0.68219,0 -0.68219,-0.23877 0,-0.30699 0.7163,-0.30699 1.0233,-0.0341 2.21715,-0.37521 1.19384,-0.3411 1.67138,-0.78453 0.30699,-0.27288 0.47754,-0.27288 0.23877,0 0.23877,0.64809 v 1.63728 q 1.77371,-2.28537 4.57073,-2.28537 2.45591,0 3.54743,1.80783 0.61397,1.0233 0.61397,3.88853 v 7.77706 q 0,1.09151 0.10233,1.19384 0.20466,0.20466 0.98919,0.20466 0.10233,0 0.37521,-0.0341 h 0.23877 q 0.3411,0 0.3411,0.23877 z"
         style="stroke-width:0.393574"
         id="path2971" />
      <path
         d="m 960.51907,298.9764 q 0,0.27288 -0.51165,0.27288 h -0.40932 q -0.61397,-0.0682 -1.67138,-0.0682 -3.34277,0 -3.95675,0.0682 h -0.23877 q -0.44343,0 -0.44343,-0.23877 0,-0.17055 0.17055,-0.20466 0.20466,-0.0341 1.33029,-0.0682 0.64809,-0.0341 0.75042,-0.17055 0.10233,-0.17055 0.10233,-1.12562 v -6.54911 q 0,-3.71797 -0.27288,-4.43428 -0.57987,-1.53495 -2.31948,-1.53495 -1.70549,0 -2.86523,1.50084 -0.3411,0.44343 -0.3411,1.22795 l 0.0341,10.64229 q 0,0.40932 0.71631,0.44343 l 1.0233,0.0341 q 0.3411,0 0.3411,0.23877 0,0.23877 -0.40932,0.23877 h -0.54576 q -0.75042,-0.0682 -2.38769,-0.0682 -0.37521,0 -1.63728,0.0341 -1.22796,0.0341 -1.43262,0.0341 h -0.20465 q -0.51165,0 -0.51165,-0.23877 0,-0.23877 0.61397,-0.30699 0.44343,0 0.85275,0 0.51165,0 0.61398,-0.23877 l 0.10233,-0.51165 v -7.43595 q 0,-3.88853 -0.0682,-4.29785 -0.0682,-0.40932 -0.85275,-0.40932 -0.23877,0 -0.81863,0.0682 h -0.17055 q -0.6822,0 -0.6822,-0.23877 0,-0.30699 0.71631,-0.30699 1.02329,-0.0341 2.21714,-0.37521 1.19385,-0.3411 1.67138,-0.78453 0.30699,-0.27288 0.47754,-0.27288 0.23877,0 0.23877,0.64809 v 1.63728 q 1.77372,-2.28537 4.57073,-2.28537 2.45591,0 3.54743,1.80783 0.61398,1.0233 0.61398,3.88853 v 7.77706 q 0,1.09151 0.10233,1.19384 0.20466,0.20466 0.98918,0.20466 0.10233,0 0.37521,-0.0341 h 0.23877 q 0.3411,0 0.3411,0.23877 z"
         style="stroke-width:0.393574"
         id="path2973" />
      <path
         d="m 966.32737,277.72593 q 0,1.53495 -1.53495,1.53495 -0.64809,0 -1.09152,-0.40932 -0.44343,-0.44343 -0.44343,-1.05741 0,-1.60316 1.53495,-1.60316 1.53495,0 1.53495,1.53494 z m 2.55824,21.25047 q 0,0.30699 -0.57987,0.30699 0.0341,0 -0.81864,-0.0682 -1.02329,-0.0682 -1.70549,-0.0682 l -3.54743,0.0682 q -0.17055,0.0341 -0.40932,0.0341 -0.37521,0 -0.37521,-0.23877 0,-0.3411 0.6822,-0.3411 1.29617,-0.0341 1.3985,-0.17055 0.13644,-0.17055 0.13644,-1.43261 l -0.0341,-10.3353 q -0.0341,-0.85275 -0.10233,-0.98919 -0.0341,-0.17055 -0.40932,-0.17055 l -0.98918,0.0341 q -0.13644,0.0341 -0.3411,0.0341 -0.37521,0 -0.37521,-0.27288 0,-0.23877 0.57987,-0.27288 2.28536,-0.10233 3.92264,-1.09152 l 0.3411,-0.20465 q 0.27287,0.51164 0.27287,1.87604 0,-0.0682 0,0.3411 -0.0341,0.40932 -0.0341,1.33028 v 9.31201 q 0,1.36439 0.0341,1.60316 0.0682,0.23877 0.37521,0.30699 0.51165,0.13644 1.50084,0.13644 0.47754,0 0.47754,0.27288 z"
         style="stroke-width:0.393574"
         id="path2975" />
      <path
         d="m 985.7684,298.9764 q 0,0.27288 -0.51165,0.27288 h -0.40932 q -0.61398,-0.0682 -1.67138,-0.0682 -3.34277,0 -3.95675,0.0682 h -0.23877 q -0.44343,0 -0.44343,-0.23877 0,-0.17055 0.17055,-0.20466 0.20466,-0.0341 1.33029,-0.0682 0.64808,-0.0341 0.75041,-0.17055 0.10233,-0.17055 0.10233,-1.12562 v -6.54911 q 0,-3.71797 -0.27288,-4.43428 -0.57986,-1.53495 -2.31947,-1.53495 -1.70549,0 -2.86523,1.50084 -0.3411,0.44343 -0.3411,1.22795 l 0.0341,10.64229 q 0,0.40932 0.71631,0.44343 l 1.0233,0.0341 q 0.34109,0 0.34109,0.23877 0,0.23877 -0.40931,0.23877 h -0.54576 q -0.75042,-0.0682 -2.3877,-0.0682 -0.3752,0 -1.63727,0.0341 -1.22796,0.0341 -1.43262,0.0341 h -0.20466 q -0.51164,0 -0.51164,-0.23877 0,-0.23877 0.61397,-0.30699 0.44343,0 0.85275,0 0.51165,0 0.61398,-0.23877 l 0.10233,-0.51165 v -7.43595 q 0,-3.88853 -0.0682,-4.29785 -0.0682,-0.40932 -0.85275,-0.40932 -0.23877,0 -0.81864,0.0682 h -0.17055 q -0.68219,0 -0.68219,-0.23877 0,-0.30699 0.7163,-0.30699 1.0233,-0.0341 2.21715,-0.37521 1.19384,-0.3411 1.67138,-0.78453 0.30699,-0.27288 0.47754,-0.27288 0.23877,0 0.23877,0.64809 v 1.63728 q 1.77372,-2.28537 4.57073,-2.28537 2.45591,0 3.54743,1.80783 0.61398,1.0233 0.61398,3.88853 v 7.77706 q 0,1.09151 0.10233,1.19384 0.20465,0.20466 0.98918,0.20466 0.10233,0 0.37521,-0.0341 h 0.23877 q 0.3411,0 0.3411,0.23877 z"
         style="stroke-width:0.393574"
         id="path2977" />
      <path
         d="m 1002.6624,285.91231 q 0,1.56905 -1.3985,1.56905 -0.4775,0 -0.8869,-0.30698 -0.3752,-0.3411 -0.3752,-0.75042 0,-0.13644 0.1024,-0.40932 0.1023,-0.30699 0.1023,-0.47754 0,-0.44343 -0.47754,-0.44343 -0.40932,0 -0.78453,0.44343 -0.37521,0.40932 -0.37521,0.85275 0,0.10233 0.17055,1.15973 0.17055,1.05741 0.17055,1.60317 0,2.31947 -1.60316,3.88853 -1.60317,1.56905 -3.99086,1.56905 -0.61398,0 -2.25125,-0.51164 -0.44343,-0.13644 -0.57987,-0.13644 -0.71631,0 -1.29618,0.57986 -0.57987,0.57987 -0.57987,1.26207 0,1.77372 2.14893,1.77372 0.81863,0 2.62646,-0.30699 1.3985,-0.23877 2.55824,-0.23877 2.08071,0 3.24044,1.09151 1.1938,1.09152 1.1938,3.03579 0,2.93345 -2.52408,4.87771 -2.49003,1.94427 -6.31034,1.94427 -2.83112,0 -4.46839,-1.15974 -1.60317,-1.12563 -1.60317,-3.13811 0,-1.94427 1.50084,-2.93345 0.75042,-0.47754 2.38769,-0.85275 -2.4218,-0.95508 -2.4218,-2.93345 0,-2.45592 3.13811,-3.41099 -2.0466,-1.60317 -2.0466,-4.22963 0,-2.45591 1.56906,-3.92264 1.56906,-1.50084 4.1273,-1.50084 1.3985,0 2.25125,0.37521 0.88686,0.37521 2.0466,1.50084 1.09151,-1.60317 2.69463,-1.60317 1.9443,0 1.9443,1.73961 z m -6.34443,3.37688 q 0,-4.94594 -2.72879,-4.94594 -2.66057,0 -2.66057,4.60484 0,5.18471 2.83112,5.18471 2.55824,0 2.55824,-4.84361 z m 2.62646,13.06409 q 0,-2.83112 -3.34277,-2.83112 -0.95507,0 -2.83112,0.30699 -1.84193,0.30699 -2.7629,0.30699 -1.73961,0.92097 -1.73961,3.24044 0,1.7396 1.22796,2.79701 1.26207,1.05741 3.30866,1.05741 2.59235,0 4.36607,-1.43262 1.77371,-1.3985 1.77371,-3.4451 z"
         style="stroke-width:0.393574"
         id="path2979" />
      <path
         d="m 1022.7649,297.64612 q 0,0.57986 -1.228,1.22795 -1.1938,0.61398 -2.3195,0.61398 -2.3536,0 -2.4559,-2.4218 -1.2962,2.52413 -4.0249,2.52413 -1.4668,0 -2.4219,-0.85275 -0.955,-0.88686 -0.955,-2.25125 0,-2.79701 3.3769,-4.43429 1.1597,-0.54576 4.0249,-1.09152 v -0.85274 q 0,-3.00167 -0.307,-3.95675 -0.5457,-1.73961 -2.4559,-1.73961 -1.1938,0 -2.0125,0.64809 -0.7845,0.64809 -0.7845,1.63728 0,0.27288 0.4093,0.27288 0.4435,0 0.7846,0.40931 0.3411,0.40932 0.3411,0.92097 0,1.50084 -1.5009,1.50084 -0.7845,0 -1.2962,-0.51165 -0.5116,-0.54576 -0.5116,-1.3644 0,-1.60316 1.2621,-2.7629 1.3985,-1.26207 3.8885,-1.26207 3.7521,0 4.6048,2.0466 0.307,0.78453 0.307,3.104 v 6.37855 q 0,1.56906 0.034,1.84194 0.1706,1.22795 0.9892,1.22795 0.9551,0 1.5691,-0.6822 0.3411,-0.3752 0.5116,-0.3752 0.1706,0 0.1706,0.20466 z m -6.0034,-3.61565 v -2.49003 q -2.5582,0.57987 -3.6839,1.53495 -1.0915,0.92097 -1.0915,2.49002 0,1.09152 0.614,1.80783 0.6481,0.68219 1.6032,0.68219 1.4667,0 2.3536,-1.63727 0.2046,-0.37521 0.2046,-2.38769 z"
         style="stroke-width:0.393574"
         id="path2981" />
      <path
         d="m 1037.2781,291.60866 q 0,3.41099 -1.9443,5.69636 -1.9101,2.28536 -4.7754,2.28536 -2.2512,0 -3.4792,-1.63728 v 7.94761 q 0,0.75042 0.034,0.88686 0.068,0.13644 0.3411,0.23877 0.5117,0.10233 1.9784,0.10233 0.4093,0 0.4093,0.30699 0,0.23877 -0.4434,0.23877 h -0.6481 q -0.2387,0 -0.7845,0 -0.5117,-0.0341 -0.8869,-0.0341 -0.2046,0 -1.1256,0.0341 -0.9551,0 -1.4326,0 h -1.8078 q -0.9892,0 -0.9892,-0.23877 0,-0.30699 0.4093,-0.30699 h 1.0233 q 0.9892,0 1.0574,-0.44343 0.034,-0.20466 0.034,-3.13811 V 286.5604 q 0,-0.95508 -0.921,-0.88686 -1.3643,-0.0682 -1.4326,-0.0682 -0.307,0 -0.307,-0.23877 0,-0.30699 0.7505,-0.30699 1.876,0.0341 3.4109,-0.88686 0.4435,-0.27288 0.6822,-0.27288 0.2729,0 0.3411,0.27288 0.1024,0.23877 0.1365,1.53495 1.2621,-1.80783 3.6156,-1.80783 2.9676,0 4.8436,2.18304 1.9102,2.14892 1.9102,5.5258 z m -3.0358,0.0341 q 0,-2.66057 -0.8186,-4.53661 -1.0915,-2.59236 -3.3769,-2.59236 -1.1938,0 -2.0466,0.85275 -0.8527,0.81864 -0.921,2.01248 -0.068,1.50084 0.034,6.31034 0.034,2.4218 0.1024,2.93345 0.068,0.47754 0.4434,0.98919 0.9892,1.3985 2.5582,1.3985 1.7738,0 2.6606,-1.50083 1.3644,-2.28537 1.3644,-5.86691 z"
         style="stroke-width:0.393574"
         id="path2983" />
      <path
         d="m 1052.0914,295.46308 q 0,0.3411 -0.5458,1.22796 -0.5116,0.85275 -1.0574,1.3985 -1.4667,1.50084 -3.9226,1.50084 -3.0699,0 -5.1506,-2.21714 -2.0466,-2.21715 -2.0466,-5.4917 0,-3.41099 1.9442,-5.69635 1.9784,-2.28537 4.9119,-2.28537 2.4218,0 4.059,1.43262 1.6373,1.39851 1.7397,3.61565 -1.0916,0.17055 -2.8994,0.13644 l -2.3877,-0.0341 q -0.2387,0 -4.0932,0.10233 -0.1705,1.12563 -0.1705,2.14892 0,3.4451 1.2962,5.32115 1.3302,1.84193 3.7179,1.84193 1.3644,0 2.1831,-0.61398 0.8186,-0.61397 1.7737,-2.35358 0.1364,-0.27288 0.3752,-0.27288 0.2729,0 0.2729,0.23877 z m -2.9676,-6.95842 q -0.1364,-4.09319 -2.9334,-4.09319 -2.7629,0 -3.4451,4.09319 z"
         style="stroke-width:0.393574"
         id="path2985" />
      <path
         d="m 1064.4626,286.2193 q 0,0.78453 -0.4775,1.29617 -0.4776,0.51165 -1.228,0.51165 -0.6139,0 -1.0233,-0.3411 -0.4093,-0.3752 -0.4093,-0.92096 0,-0.47754 0.307,-0.81864 0.307,-0.3411 0.307,-0.47754 0,-0.51165 -0.7504,-0.51165 -0.9551,0 -1.6373,1.19385 -0.7845,1.3985 -0.7845,5.1847 v 6.75376 q 0,0.40932 0.2729,0.51165 0.3069,0.10233 1.7737,0.13644 0.3752,0.0682 0.3752,0.27288 0,0.23877 -0.4435,0.23877 -0.7845,0 -1.4667,-0.0341 -0.6822,-0.0341 -2.5923,-0.0341 -0.9892,0 -1.4326,0.0341 -0.4435,0.0341 -1.1257,0.0341 -0.5457,0 -0.5457,-0.23877 0,-0.23877 0.4434,-0.23877 h 0.4775 q 1.1598,0 1.3644,-0.27288 0.068,-0.13644 0.068,-1.26206 v -9.38023 q 0,-1.87604 -0.5799,-2.14892 -0.5458,-0.30699 -1.7737,-0.3411 -0.4094,0 -0.4094,-0.23877 0,-0.23877 0.3411,-0.23877 h 0.2388 q 0.5117,0 1.0233,0.0682 0.5117,0.0341 0.4434,0.0341 1.2621,0 2.7971,-0.71631 l 0.4434,-0.20466 0.2729,-0.10233 q 0.1364,0.81864 0.1364,1.63728 v 0.6822 q 1.0915,-2.3877 3.0699,-2.3877 1.0915,0 1.8078,0.6822 0.7163,0.64809 0.7163,1.63728 z"
         style="stroke-width:0.393574"
         id="path2987" />
      <path
         d="m 1074.8283,297.16858 q 0,0.30699 -0.8528,1.09151 -1.4667,1.33029 -3.4792,1.33029 -1.876,0 -2.8311,-0.95508 -0.5458,-0.54576 -0.5458,-3.20633 v -10.16475 q -0.034,-0.3411 -0.3752,-0.37521 h -1.2961 q -0.7505,0 -0.7505,-0.23877 0,-0.23877 0.3752,-0.27288 2.6606,-0.23877 4.1615,-2.59235 0.2046,-0.30699 0.5116,-0.30699 0.2388,0 0.2388,0.23877 v 0.13644 q -0.034,0.17055 -0.034,0.57987 0,1.43262 0.1364,1.84193 0.307,0.0682 1.0233,0.0682 1.876,0 2.49,-0.17055 0.1365,-0.0341 0.2388,-0.0341 0.2729,0 0.2729,0.30699 0,0.51165 -2.7629,0.51165 -0.4776,0 -1.3985,-0.0341 v 6.31033 q 0,4.77539 0.2387,6.00335 0.2388,1.19384 1.5691,1.19384 1.1256,0 2.5241,-1.26206 0.1365,-0.17055 0.307,-0.17055 0.2388,0 0.2388,0.17055 z"
         style="stroke-width:0.393574"
         id="path2989" />
      <path
         d="m 1089.5025,291.81332 q 0,3.30866 -2.0125,5.55992 -2.0125,2.21714 -5.0142,2.21714 -3.104,0 -5.1847,-2.21714 -2.0807,-2.25126 -2.0807,-5.55992 0,-3.41099 2.0125,-5.66224 2.0466,-2.25126 5.0824,-2.25126 3.0699,0 5.1165,2.28537 2.0807,2.25125 2.0807,5.62813 z m -3.104,-0.0341 q 0,-3.75209 -1.1598,-5.83279 -0.8527,-1.53495 -2.8652,-1.53495 -1.9102,0 -3.0017,1.97838 -1.0574,1.94426 -1.0574,5.42347 0,3.4451 1.1256,5.38937 1.1598,1.91015 3.2064,1.91015 1.569,0 2.3195,-1.19385 1.4326,-2.25125 1.4326,-6.13978 z"
         style="stroke-width:0.393574"
         id="path2991" />
      <path
         d="m 1110.6512,295.46308 q 0,0.3411 -0.5458,1.22796 -0.5116,0.85275 -1.0574,1.3985 -1.4667,1.50084 -3.9226,1.50084 -3.0699,0 -5.1506,-2.21714 -2.0466,-2.21715 -2.0466,-5.4917 0,-3.41099 1.9442,-5.69635 1.9784,-2.28537 4.9119,-2.28537 2.4218,0 4.059,1.43262 1.6373,1.39851 1.7396,3.61565 -1.0915,0.17055 -2.8993,0.13644 l -2.3877,-0.0341 q -0.2388,0 -4.0932,0.10233 -0.1705,1.12563 -0.1705,2.14892 0,3.4451 1.2961,5.32115 1.3303,1.84193 3.718,1.84193 1.3644,0 2.1831,-0.61398 0.8186,-0.61397 1.7737,-2.35358 0.1364,-0.27288 0.3752,-0.27288 0.2729,0 0.2729,0.23877 z m -2.9676,-6.95842 q -0.1364,-4.09319 -2.9335,-4.09319 -2.7629,0 -3.4451,4.09319 z"
         style="stroke-width:0.393574"
         id="path2993" />
      <path
         d="m 1131.3297,287.41314 q 0,1.56906 -1.5349,1.56906 -1.5008,0 -1.5008,-1.43262 0,-0.3752 0.3411,-1.12562 0.1023,-0.23877 0.1023,-0.47754 0,-0.6822 -0.7163,-1.12563 -0.6822,-0.44343 -1.7396,-0.44343 -2.0466,0 -3.1723,1.77372 -1.1256,1.77371 -1.1256,4.98004 0,3.61565 1.1598,5.59403 1.1597,1.94426 3.2745,1.94426 1.4326,0 2.5583,-0.88686 0.5116,-0.40931 1.3302,-1.56905 0.1706,-0.17055 0.307,-0.17055 0.3411,0 0.3411,0.27288 0,0.44343 -1.1938,1.67138 -1.535,1.60317 -3.9227,1.60317 -3.0016,0 -4.98,-2.14892 -1.9443,-2.14893 -1.9443,-5.42348 0,-3.51332 2.0807,-5.79868 2.0807,-2.31948 5.2188,-2.31948 2.0125,0 3.5475,1.05741 1.569,1.05741 1.569,2.45591 z"
         style="stroke-width:0.393574"
         id="path2995" />
      <path
         d="m 1147.1295,291.81332 q 0,3.30866 -2.0124,5.55992 -2.0125,2.21714 -5.0142,2.21714 -3.104,0 -5.1847,-2.21714 -2.0807,-2.25126 -2.0807,-5.55992 0,-3.41099 2.0125,-5.66224 2.0466,-2.25126 5.0824,-2.25126 3.0698,0 5.1164,2.28537 2.0807,2.25125 2.0807,5.62813 z m -3.104,-0.0341 q 0,-3.75209 -1.1597,-5.83279 -0.8527,-1.53495 -2.8652,-1.53495 -1.9102,0 -3.0017,1.97838 -1.0574,1.94426 -1.0574,5.42347 0,3.4451 1.1256,5.38937 1.1598,1.91015 3.2064,1.91015 1.569,0 2.3194,-1.19385 1.4326,-2.25125 1.4326,-6.13978 z"
         style="stroke-width:0.393574"
         id="path2997" />
      <path
         d="m 1164.7122,298.9764 q 0,0.27288 -0.5117,0.27288 h -0.4093 q -0.614,-0.0682 -1.6714,-0.0682 -3.3428,0 -3.9567,0.0682 h -0.2388 q -0.4434,0 -0.4434,-0.23877 0,-0.17055 0.1705,-0.20466 0.2047,-0.0341 1.3303,-0.0682 0.6481,-0.0341 0.7504,-0.17055 0.1023,-0.17055 0.1023,-1.12562 v -6.54911 q 0,-3.71797 -0.2728,-4.43428 -0.5799,-1.53495 -2.3195,-1.53495 -1.7055,0 -2.8652,1.50084 -0.3411,0.44343 -0.3411,1.22795 l 0.034,10.64229 q 0,0.40932 0.7163,0.44343 l 1.0233,0.0341 q 0.3411,0 0.3411,0.23877 0,0.23877 -0.4093,0.23877 h -0.5458 q -0.7504,-0.0682 -2.3877,-0.0682 -0.3752,0 -1.6373,0.0341 -1.2279,0.0341 -1.4326,0.0341 h -0.2047 q -0.5116,0 -0.5116,-0.23877 0,-0.23877 0.614,-0.30699 0.4434,0 0.8527,0 0.5117,0 0.614,-0.23877 l 0.1023,-0.51165 v -7.43595 q 0,-3.88853 -0.068,-4.29785 -0.068,-0.40932 -0.8527,-0.40932 -0.2388,0 -0.8187,0.0682 h -0.1705 q -0.6822,0 -0.6822,-0.23877 0,-0.30699 0.7163,-0.30699 1.0233,-0.0341 2.2171,-0.37521 1.1939,-0.3411 1.6714,-0.78453 0.307,-0.27288 0.4776,-0.27288 0.2387,0 0.2387,0.64809 v 1.63728 q 1.7737,-2.28537 4.5708,-2.28537 2.4559,0 3.5474,1.80783 0.614,1.0233 0.614,3.88853 v 7.77706 q 0,1.09151 0.1023,1.19384 0.2047,0.20466 0.9892,0.20466 0.1023,0 0.3752,-0.0341 h 0.2388 q 0.3411,0 0.3411,0.23877 z"
         style="stroke-width:0.393574"
         id="path2999" />
      <path
         d="m 1181.3674,298.9764 q 0,0.27288 -0.5117,0.27288 h -0.4093 q -0.614,-0.0682 -1.6714,-0.0682 -3.3428,0 -3.9567,0.0682 h -0.2388 q -0.4434,0 -0.4434,-0.23877 0,-0.17055 0.1705,-0.20466 0.2047,-0.0341 1.3303,-0.0682 0.6481,-0.0341 0.7504,-0.17055 0.1024,-0.17055 0.1024,-1.12562 v -6.54911 q 0,-3.71797 -0.2729,-4.43428 -0.5799,-1.53495 -2.3195,-1.53495 -1.7055,0 -2.8652,1.50084 -0.3411,0.44343 -0.3411,1.22795 l 0.034,10.64229 q 0,0.40932 0.7163,0.44343 l 1.0233,0.0341 q 0.3411,0 0.3411,0.23877 0,0.23877 -0.4093,0.23877 h -0.5458 q -0.7504,-0.0682 -2.3877,-0.0682 -0.3752,0 -1.6373,0.0341 -1.2279,0.0341 -1.4326,0.0341 h -0.2046 q -0.5117,0 -0.5117,-0.23877 0,-0.23877 0.614,-0.30699 0.4434,0 0.8527,0 0.5117,0 0.614,-0.23877 l 0.1023,-0.51165 v -7.43595 q 0,-3.88853 -0.068,-4.29785 -0.068,-0.40932 -0.8527,-0.40932 -0.2388,0 -0.8187,0.0682 h -0.1705 q -0.6822,0 -0.6822,-0.23877 0,-0.30699 0.7163,-0.30699 1.0233,-0.0341 2.2171,-0.37521 1.1939,-0.3411 1.6714,-0.78453 0.307,-0.27288 0.4776,-0.27288 0.2387,0 0.2387,0.64809 v 1.63728 q 1.7738,-2.28537 4.5708,-2.28537 2.4559,0 3.5474,1.80783 0.614,1.0233 0.614,3.88853 v 7.77706 q 0,1.09151 0.1023,1.19384 0.2047,0.20466 0.9892,0.20466 0.1023,0 0.3752,-0.0341 h 0.2388 q 0.3411,0 0.3411,0.23877 z"
         style="stroke-width:0.393574"
         id="path3001" />
      <path
         d="m 1195.2597,295.46308 q 0,0.3411 -0.5457,1.22796 -0.5117,0.85275 -1.0575,1.3985 -1.4667,1.50084 -3.9226,1.50084 -3.0699,0 -5.1506,-2.21714 -2.0466,-2.21715 -2.0466,-5.4917 0,-3.41099 1.9443,-5.69635 1.9784,-2.28537 4.9118,-2.28537 2.4218,0 4.0591,1.43262 1.6373,1.39851 1.7396,3.61565 -1.0915,0.17055 -2.8994,0.13644 l -2.3876,-0.0341 q -0.2388,0 -4.0932,0.10233 -0.1706,1.12563 -0.1706,2.14892 0,3.4451 1.2962,5.32115 1.3303,1.84193 3.718,1.84193 1.3644,0 2.183,-0.61398 0.8186,-0.61397 1.7737,-2.35358 0.1365,-0.27288 0.3752,-0.27288 0.2729,0 0.2729,0.23877 z m -2.9676,-6.95842 q -0.1364,-4.09319 -2.9334,-4.09319 -2.7629,0 -3.4451,4.09319 z"
         style="stroke-width:0.393574"
         id="path3003" />
      <path
         d="m 1207.5969,294.8491 q 0,1.97838 -1.4668,3.37688 -1.4326,1.3644 -3.4451,1.3644 -1.1597,0 -2.8311,-0.81864 -0.4434,-0.23877 -0.7845,-0.23877 -0.4776,0 -0.7163,0.64809 -0.1365,0.40932 -0.3752,0.40932 -0.2388,0 -0.2388,-0.27288 0,-0.17055 0.034,-0.40932 0.1023,-0.6822 0.1023,-2.01248 0,-0.10233 -0.034,-0.81864 -0.034,-0.71631 -0.034,-0.95508 v -0.37521 q 0,-0.37521 0.2388,-0.37521 0.2729,0 0.307,0.37521 0.2046,1.56906 0.8868,2.45592 1.3644,1.77371 3.6498,1.77371 1.2279,0 1.9784,-0.71631 0.7504,-0.7163 0.7504,-1.91015 0,-1.33029 -0.8528,-2.11481 -0.4775,-0.44343 -0.8868,-0.61398 -0.3752,-0.20466 -2.2854,-0.92097 -3.7862,-1.43262 -3.7862,-4.29785 0,-1.91015 1.2962,-3.20633 1.2962,-1.29618 3.2063,-1.29618 0.6822,0 2.0466,0.40932 0.3411,0.10233 0.614,0.10233 0.7163,0 0.8868,-0.68219 0.1024,-0.3411 0.307,-0.3411 0.2388,0 0.2388,0.27288 0,0.0341 -0.034,0.20466 l -0.034,1.43261 q -0.034,0.81864 0.1705,2.62646 v 0.0682 q 0,0.27288 -0.2728,0.27288 -0.2047,0 -0.5117,-1.02329 -0.3752,-1.22796 -1.3303,-1.97838 -0.9209,-0.75042 -2.1489,-0.75042 -1.1597,0 -1.9102,0.71631 -0.7504,0.71631 -0.7504,1.80783 0,1.70549 2.2854,2.59235 3.5474,1.3985 4.5025,2.31947 1.228,1.19385 1.228,2.89934 z"
         style="stroke-width:0.393574"
         id="path3005" />
      <path
         d="m 1219.9217,294.8491 q 0,1.97838 -1.4667,3.37688 -1.4327,1.3644 -3.4451,1.3644 -1.1598,0 -2.8312,-0.81864 -0.4434,-0.23877 -0.7845,-0.23877 -0.4775,0 -0.7163,0.64809 -0.1364,0.40932 -0.3752,0.40932 -0.2388,0 -0.2388,-0.27288 0,-0.17055 0.034,-0.40932 0.1024,-0.6822 0.1024,-2.01248 0,-0.10233 -0.034,-0.81864 -0.034,-0.71631 -0.034,-0.95508 v -0.37521 q 0,-0.37521 0.2388,-0.37521 0.2729,0 0.307,0.37521 0.2047,1.56906 0.8869,2.45592 1.3644,1.77371 3.6497,1.77371 1.228,0 1.9784,-0.71631 0.7504,-0.7163 0.7504,-1.91015 0,-1.33029 -0.8527,-2.11481 -0.4776,-0.44343 -0.8869,-0.61398 -0.3752,-0.20466 -2.2854,-0.92097 -3.7862,-1.43262 -3.7862,-4.29785 0,-1.91015 1.2962,-3.20633 1.2962,-1.29618 3.2063,-1.29618 0.6822,0 2.0466,0.40932 0.3411,0.10233 0.614,0.10233 0.7163,0 0.8869,-0.68219 0.1023,-0.3411 0.307,-0.3411 0.2387,0 0.2387,0.27288 0,0.0341 -0.034,0.20466 l -0.034,1.43261 q -0.034,0.81864 0.1706,2.62646 v 0.0682 q 0,0.27288 -0.2729,0.27288 -0.2047,0 -0.5117,-1.02329 -0.3752,-1.22796 -1.3302,-1.97838 -0.921,-0.75042 -2.149,-0.75042 -1.1597,0 -1.9101,0.71631 -0.7504,0.71631 -0.7504,1.80783 0,1.70549 2.2853,2.59235 3.5474,1.3985 4.5025,2.31947 1.228,1.19385 1.228,2.89934 z"
         style="stroke-width:0.393574"
         id="path3007" />
      <path
         d="m 1236.1351,291.81332 q 0,3.30866 -2.0125,5.55992 -2.0125,2.21714 -5.0141,2.21714 -3.104,0 -5.1847,-2.21714 -2.0807,-2.25126 -2.0807,-5.55992 0,-3.41099 2.0124,-5.66224 2.0466,-2.25126 5.0824,-2.25126 3.0699,0 5.1165,2.28537 2.0807,2.25125 2.0807,5.62813 z m -3.104,-0.0341 q 0,-3.75209 -1.1597,-5.83279 -0.8528,-1.53495 -2.8653,-1.53495 -1.9101,0 -3.0016,1.97838 -1.0574,1.94426 -1.0574,5.42347 0,3.4451 1.1256,5.38937 1.1597,1.91015 3.2063,1.91015 1.5691,0 2.3195,-1.19385 1.4326,-2.25125 1.4326,-6.13978 z"
         style="stroke-width:0.393574"
         id="path3009" />
    </g>
    <rect
       y="337.40897"
       x="655.86975"
       height="53.132614"
       width="590.36243"
       id="rect1757"
       style="fill:#f2f2f2;stroke-width:1.44248;stroke-linecap:round;stroke-linejoin:round" />
    <g
       aria-label="riobaproject.it"
       id="text1755"
       style="font-style:normal;font-variant:normal;font-weight:normal;font-stretch:normal;font-size:36.7336px;line-height:1.25;font-family:'Bodoni 72 Oldstyle';-inkscape-font-specification:'Bodoni 72 Oldstyle';fill:#000000;fill-opacity:1;stroke:none;stroke-width:0.393574">
      <path
         d="m 678.12672,354.80765 q 0,0.84487 -0.51427,1.39588 -0.51427,0.551 -1.32241,0.551 -0.6612,0 -1.10201,-0.36733 -0.4408,-0.40407 -0.4408,-0.99181 0,-0.51427 0.3306,-0.88161 0.3306,-0.36733 0.3306,-0.51427 0,-0.551 -0.80813,-0.551 -1.02855,0 -1.76322,1.28567 -0.84487,1.50608 -0.84487,5.58351 v 7.27325 q 0,0.44081 0.29387,0.55101 0.3306,0.1102 1.91015,0.14693 0.40407,0.0735 0.40407,0.29387 0,0.25714 -0.47754,0.25714 -0.84487,0 -1.57955,-0.0367 -0.73467,-0.0367 -2.79175,-0.0367 -1.06527,0 -1.54281,0.0367 -0.47754,0.0367 -1.21221,0.0367 -0.58774,0 -0.58774,-0.25714 0,-0.25713 0.47754,-0.25713 h 0.51427 q 1.24894,0 1.46934,-0.29387 0.0735,-0.14694 0.0735,-1.35915 v -10.10174 q 0,-2.02034 -0.62447,-2.31421 -0.58774,-0.33061 -1.91015,-0.36734 -0.4408,0 -0.4408,-0.25713 0,-0.25714 0.36734,-0.25714 h 0.25713 q 0.551,0 1.10201,0.0735 0.551,0.0367 0.47754,0.0367 1.35914,0 3.01215,-0.77141 l 0.47754,-0.2204 0.29387,-0.1102 q 0.14693,0.88161 0.14693,1.76322 v 0.73467 q 1.17548,-2.57135 3.30602,-2.57135 1.17548,0 1.94689,0.73467 0.7714,0.69794 0.7714,1.76321 z"
         style="stroke-width:0.393574"
         id="path3012" />
      <path
         d="m 684.29395,345.66098 q 0,1.65302 -1.65301,1.65302 -0.69794,0 -1.17548,-0.44081 -0.47754,-0.47753 -0.47754,-1.13874 0,-1.72648 1.65302,-1.72648 1.65301,0 1.65301,1.65301 z m 2.75502,22.88504 q 0,0.3306 -0.62447,0.3306 0.0367,0 -0.88161,-0.0735 -1.10201,-0.0735 -1.83668,-0.0735 l -3.82029,0.0735 q -0.18367,0.0367 -0.44081,0.0367 -0.40407,0 -0.40407,-0.25714 0,-0.36734 0.73468,-0.36734 1.39587,-0.0367 1.50607,-0.18366 0.14694,-0.18367 0.14694,-1.54281 l -0.0367,-11.13029 q -0.0367,-0.91834 -0.1102,-1.06527 -0.0367,-0.18367 -0.4408,-0.18367 l -1.06527,0.0367 q -0.14694,0.0367 -0.36734,0.0367 -0.40407,0 -0.40407,-0.29387 0,-0.25713 0.62447,-0.29387 2.46115,-0.1102 4.22437,-1.17547 l 0.36733,-0.22041 q 0.29387,0.55101 0.29387,2.02035 0,-0.0735 0,0.36734 -0.0367,0.4408 -0.0367,1.43261 v 10.02827 q 0,1.46935 0.0367,1.72648 0.0735,0.25714 0.40407,0.3306 0.551,0.14694 1.61628,0.14694 0.51427,0 0.51427,0.29387 z"
         style="stroke-width:0.393574"
         id="path3014" />
      <path
         d="m 703.9447,360.83196 q 0,3.56316 -2.16728,5.98758 -2.16728,2.38768 -5.39984,2.38768 -3.34276,0 -5.58351,-2.38768 -2.24075,-2.42442 -2.24075,-5.98758 0,-3.67336 2.16729,-6.09778 2.20401,-2.42441 5.4733,-2.42441 3.30603,0 5.51004,2.46115 2.24075,2.42441 2.24075,6.06104 z m -3.34276,-0.0367 q 0,-4.0407 -1.24894,-6.28145 -0.91834,-1.65301 -3.08562,-1.65301 -2.05708,0 -3.23256,2.13055 -1.13874,2.09381 -1.13874,5.84064 0,3.71009 1.21221,5.80391 1.24894,2.05708 3.45296,2.05708 1.68974,0 2.49788,-1.28567 1.54281,-2.42442 1.54281,-6.61205 z"
         style="stroke-width:0.393574"
         id="path3016" />
      <path
         d="m 721.59405,360.02382 q 0,3.8203 -2.31422,6.50185 -2.31421,2.68155 -5.5835,2.68155 -1.13874,0 -2.38769,-0.47754 -1.24894,-0.47753 -1.68974,-0.47753 -0.40407,0 -0.91834,0.36733 -0.51427,0.33061 -0.77141,0.33061 -0.29387,0 -0.29387,-1.21221 v -19.10147 q 0,-3.7101 -0.47753,-4.00397 -0.18367,-0.1102 -1.43261,-0.1102 -0.88161,0 -0.88161,-0.29387 0,-0.25713 0.40407,-0.25713 h 0.51427 q 2.02035,0 3.89376,-0.84487 0.551,-0.25714 0.77141,-0.25714 h 0.14693 v 11.53435 q 1.39588,-2.09381 4.18763,-2.09381 3.08562,0 4.95904,2.13054 1.87341,2.09382 1.87341,5.58351 z m -3.34276,0.18367 q 0,-3.45296 -1.102,-5.32637 -1.06528,-1.87342 -3.01216,-1.87342 -1.02854,0 -1.94688,0.66121 -0.91834,0.62447 -1.24894,1.57954 -0.33061,0.95508 -0.33061,5.80391 0,5.06924 0.25714,6.02431 0.40407,1.54281 2.68155,1.54281 2.16728,0 3.19583,-1.65301 1.50607,-2.46115 1.50607,-6.75898 z"
         style="stroke-width:0.393574"
         id="path3018" />
      <path
         d="m 738.47199,367.11341 q 0,0.62447 -1.32241,1.32241 -1.28568,0.6612 -2.49788,0.6612 -2.53462,0 -2.64482,-2.60808 -1.39588,2.71828 -4.33457,2.71828 -1.57954,0 -2.60808,-0.91834 -1.02854,-0.95507 -1.02854,-2.42442 0,-3.01215 3.63662,-4.77536 1.24894,-0.58774 4.33457,-1.17548 v -0.91834 q 0,-3.23256 -0.33061,-4.2611 -0.58773,-1.87341 -2.64481,-1.87341 -1.28568,0 -2.16729,0.69794 -0.84487,0.69794 -0.84487,1.76321 0,0.29387 0.4408,0.29387 0.47754,0 0.84488,0.4408 0.36733,0.44081 0.36733,0.99181 0,1.61628 -1.61628,1.61628 -0.84487,0 -1.39587,-0.55101 -0.55101,-0.58773 -0.55101,-1.46934 0,-1.72648 1.35915,-2.97542 1.50607,-1.35914 4.18763,-1.35914 4.04069,0 4.95903,2.20401 0.3306,0.84487 0.3306,3.34276 v 6.86918 q 0,1.68975 0.0367,1.98362 0.18367,1.32241 1.06527,1.32241 1.02854,0 1.68975,-0.73468 0.36733,-0.40407 0.551,-0.40407 0.18367,0 0.18367,0.22041 z m -6.46511,-3.89377 v -2.68155 q -2.75502,0.62447 -3.96723,1.65301 -1.17548,0.99181 -1.17548,2.68156 0,1.17547 0.66121,1.94688 0.69794,0.73467 1.72648,0.73467 1.57954,0 2.53462,-1.76321 0.2204,-0.40407 0.2204,-2.57136 z"
         style="stroke-width:0.393574"
         id="path3020" />
      <path
         d="m 754.10156,360.61156 q 0,3.67336 -2.09381,6.13451 -2.05709,2.46115 -5.14271,2.46115 -2.42442,0 -3.74682,-1.76321 v 8.55893 q 0,0.80814 0.0367,0.95507 0.0735,0.14694 0.36733,0.25714 0.55101,0.1102 2.13055,0.1102 0.44081,0 0.44081,0.3306 0,0.25714 -0.47754,0.25714 h -0.69794 q -0.25713,0 -0.84487,0 -0.55101,-0.0367 -0.95507,-0.0367 -0.22041,0 -1.21221,0.0367 -1.02854,0 -1.54281,0 h -1.94689 q -1.06527,0 -1.06527,-0.25714 0,-0.3306 0.4408,-0.3306 h 1.10201 q 1.06528,0 1.13874,-0.47754 0.0367,-0.2204 0.0367,-3.37949 v -18.29333 q 0,-1.02854 -0.99181,-0.95508 -1.46934,-0.0735 -1.54281,-0.0735 -0.3306,0 -0.3306,-0.25714 0,-0.3306 0.80813,-0.3306 2.02035,0.0367 3.67336,-0.95508 0.47754,-0.29386 0.73468,-0.29386 0.29387,0 0.36733,0.29386 0.1102,0.25714 0.14694,1.65302 1.35914,-1.94688 3.89376,-1.94688 3.19582,0 5.21617,2.35095 2.05708,2.31421 2.05708,5.95084 z m -3.26929,0.0367 q 0,-2.86522 -0.88161,-4.88557 -1.17547,-2.79175 -3.63662,-2.79175 -1.28568,0 -2.20402,0.91834 -0.91834,0.88161 -0.9918,2.16728 -0.0735,1.61628 0.0367,6.79572 0.0367,2.60808 0.1102,3.15909 0.0735,0.51427 0.47754,1.06527 1.06527,1.50608 2.75502,1.50608 1.91014,0 2.86522,-1.61628 1.46934,-2.46115 1.46934,-6.31818 z"
         style="stroke-width:0.393574"
         id="path3022" />
      <path
         d="m 767.59313,354.80765 q 0,0.84487 -0.51427,1.39588 -0.51427,0.551 -1.32241,0.551 -0.66121,0 -1.10201,-0.36733 -0.4408,-0.40407 -0.4408,-0.99181 0,-0.51427 0.3306,-0.88161 0.3306,-0.36733 0.3306,-0.51427 0,-0.551 -0.80814,-0.551 -1.02854,0 -1.76321,1.28567 -0.84487,1.50608 -0.84487,5.58351 v 7.27325 q 0,0.44081 0.29387,0.55101 0.3306,0.1102 1.91014,0.14693 0.40407,0.0735 0.40407,0.29387 0,0.25714 -0.47753,0.25714 -0.84488,0 -1.57955,-0.0367 -0.73467,-0.0367 -2.79175,-0.0367 -1.06528,0 -1.54281,0.0367 -0.47754,0.0367 -1.21221,0.0367 -0.58774,0 -0.58774,-0.25714 0,-0.25713 0.47754,-0.25713 h 0.51427 q 1.24894,0 1.46934,-0.29387 0.0735,-0.14694 0.0735,-1.35915 v -10.10174 q 0,-2.02034 -0.62447,-2.31421 -0.58774,-0.33061 -1.91015,-0.36734 -0.4408,0 -0.4408,-0.25713 0,-0.25714 0.36733,-0.25714 h 0.25714 q 0.551,0 1.10201,0.0735 0.551,0.0367 0.47753,0.0367 1.35915,0 3.01216,-0.77141 l 0.47754,-0.2204 0.29386,-0.1102 q 0.14694,0.88161 0.14694,1.76322 v 0.73467 q 1.17547,-2.57135 3.30602,-2.57135 1.17548,0 1.94688,0.73467 0.77141,0.69794 0.77141,1.76321 z"
         style="stroke-width:0.393574"
         id="path3024" />
      <path
         d="m 784.15597,360.83196 q 0,3.56316 -2.16729,5.98758 -2.16728,2.38768 -5.39983,2.38768 -3.34276,0 -5.58351,-2.38768 -2.24075,-2.42442 -2.24075,-5.98758 0,-3.67336 2.16728,-6.09778 2.20402,-2.42441 5.47331,-2.42441 3.30602,0 5.51004,2.46115 2.24075,2.42441 2.24075,6.06104 z m -3.34276,-0.0367 q 0,-4.0407 -1.24894,-6.28145 -0.91834,-1.65301 -3.08563,-1.65301 -2.05708,0 -3.23255,2.13055 -1.13874,2.09381 -1.13874,5.84064 0,3.71009 1.2122,5.80391 1.24895,2.05708 3.45296,2.05708 1.68975,0 2.49789,-1.28567 1.54281,-2.42442 1.54281,-6.61205 z"
         style="stroke-width:0.393574"
         id="path3026" />
      <path
         d="m 791.48317,345.69772 q 0,1.61628 -1.61628,1.61628 -0.73467,0 -1.21221,-0.44081 -0.47753,-0.47753 -0.47753,-1.21221 0,-0.69793 0.4408,-1.17547 0.47754,-0.47754 1.17548,-0.47754 1.68974,0 1.68974,1.68975 z m 0.18367,24.02377 q 0,3.9305 -1.35914,6.20798 -1.35915,2.31422 -3.7101,2.31422 -1.13874,0 -1.87341,-0.58774 -0.77141,-0.58774 -0.77141,-1.46934 0,-1.72648 1.87342,-1.72648 1.54281,0 1.54281,1.28567 0,0.3306 -0.2204,1.17548 -0.0367,0.0735 -0.0367,0.29387 0,0.3306 0.2204,0.3306 0.69794,0 0.99181,-1.13874 0.3306,-1.10201 0.3306,-5.62024 l -0.0367,-16.19952 q -0.0367,-0.47754 -0.551,-0.47754 h -0.40407 q -0.14694,0.0367 -1.68975,0.0367 -0.40407,0 -0.40407,-0.29387 0,-0.25714 0.95507,-0.25714 2.60809,0.0367 3.8203,-0.88161 0.6612,-0.40406 0.84487,-0.40406 0.29387,0 0.3306,0.4408 0.0367,0.40407 0.0735,2.75502 l 0.0367,4.3713 q 0,0.58773 0.0367,1.57954 0,0.80814 0,1.13874 z"
         style="stroke-width:0.393574"
         id="path3028" />
      <path
         d="m 808.79675,364.76246 q 0,0.36733 -0.58774,1.32241 -0.551,0.91834 -1.13874,1.50607 -1.57954,1.61628 -4.22436,1.61628 -3.30603,0 -5.54678,-2.38768 -2.20401,-2.38769 -2.20401,-5.91411 0,-3.67336 2.09381,-6.13451 2.13055,-2.46115 5.28964,-2.46115 2.60809,0 4.3713,1.54281 1.76321,1.50607 1.87341,3.89376 -1.17547,0.18367 -3.12235,0.14693 l -2.57136,-0.0367 q -0.25713,0 -4.40803,0.1102 -0.18367,1.21221 -0.18367,2.31422 0,3.71009 1.39588,5.73044 1.43261,1.98361 4.00396,1.98361 1.46935,0 2.35095,-0.6612 0.88161,-0.66121 1.91015,-2.53462 0.14694,-0.29387 0.40407,-0.29387 0.29387,0 0.29387,0.25714 z m -3.19582,-7.49366 q -0.14694,-4.40803 -3.15909,-4.40803 -2.97542,0 -3.7101,4.40803 z"
         style="stroke-width:0.393574"
         id="path3030" />
      <path
         d="m 824.25011,356.09333 q 0,1.68974 -1.65301,1.68974 -1.61628,0 -1.61628,-1.54281 0,-0.40407 0.36734,-1.21221 0.1102,-0.25713 0.1102,-0.51427 0,-0.73467 -0.77141,-1.21221 -0.73467,-0.47753 -1.87341,-0.47753 -2.20402,0 -3.41622,1.91014 -1.21221,1.91015 -1.21221,5.36311 0,3.89376 1.24894,6.02431 1.24894,2.09381 3.52642,2.09381 1.54282,0 2.75502,-0.95507 0.55101,-0.4408 1.43262,-1.68974 0.18366,-0.18367 0.3306,-0.18367 0.36733,0 0.36733,0.29387 0,0.47753 -1.28567,1.79994 -1.65301,1.72648 -4.22437,1.72648 -3.23255,0 -5.3631,-2.31422 -2.09382,-2.31421 -2.09382,-5.84064 0,-3.78356 2.24075,-6.24471 2.24075,-2.49788 5.62024,-2.49788 2.16729,0 3.8203,1.13874 1.68974,1.13874 1.68974,2.64482 z"
         style="stroke-width:0.393574"
         id="path3032" />
      <path
         d="m 835.86539,366.59914 q 0,0.3306 -0.91834,1.17547 -1.57955,1.43261 -3.74683,1.43261 -2.02035,0 -3.04889,-1.02854 -0.58774,-0.58774 -0.58774,-3.45296 v -10.94661 q -0.0367,-0.36734 -0.40406,-0.40407 h -1.39588 q -0.80814,0 -0.80814,-0.25714 0,-0.25713 0.40407,-0.29386 2.86522,-0.25714 4.4815,-2.79176 0.2204,-0.3306 0.551,-0.3306 0.25714,0 0.25714,0.25713 v 0.14694 q -0.0367,0.18367 -0.0367,0.62447 0,1.54281 0.14694,1.98361 0.3306,0.0735 1.10201,0.0735 2.02034,0 2.68155,-0.18367 0.14693,-0.0367 0.25713,-0.0367 0.29387,0 0.29387,0.3306 0,0.55101 -2.97542,0.55101 -0.51427,0 -1.50608,-0.0367 v 6.79572 q 0,5.1427 0.25714,6.46511 0.25713,1.28568 1.68974,1.28568 1.21221,0 2.71829,-1.35914 0.14694,-0.18367 0.3306,-0.18367 0.25714,0 0.25714,0.18367 z"
         style="stroke-width:0.393574"
         id="path3034" />
      <path
         d="m 841.8237,367.03994 q 0,0.80814 -0.58774,1.39588 -0.551,0.551 -1.35914,0.551 -0.84487,0 -1.43261,-0.551 -0.55101,-0.58774 -0.55101,-1.43261 0,-0.80814 0.55101,-1.35915 0.58774,-0.58774 1.43261,-0.58774 0.80814,0 1.35914,0.58774 0.58774,0.55101 0.58774,1.39588 z"
         style="stroke-width:0.393574"
         id="path3036" />
      <path
         d="m 850.81482,345.66098 q 0,1.65302 -1.65301,1.65302 -0.69794,0 -1.17547,-0.44081 -0.47754,-0.47753 -0.47754,-1.13874 0,-1.72648 1.65301,-1.72648 1.65301,0 1.65301,1.65301 z m 2.75502,22.88504 q 0,0.3306 -0.62447,0.3306 0.0367,0 -0.8816,-0.0735 -1.10201,-0.0735 -1.83668,-0.0735 l -3.8203,0.0735 q -0.18367,0.0367 -0.4408,0.0367 -0.40407,0 -0.40407,-0.25714 0,-0.36734 0.73467,-0.36734 1.39588,-0.0367 1.50608,-0.18366 0.14693,-0.18367 0.14693,-1.54281 l -0.0367,-11.13029 q -0.0367,-0.91834 -0.1102,-1.06527 -0.0367,-0.18367 -0.4408,-0.18367 l -1.06528,0.0367 q -0.14693,0.0367 -0.36733,0.0367 -0.40407,0 -0.40407,-0.29387 0,-0.25713 0.62447,-0.29387 2.46115,-0.1102 4.22436,-1.17547 l 0.36734,-0.22041 q 0.29387,0.55101 0.29387,2.02035 0,-0.0735 0,0.36734 -0.0367,0.4408 -0.0367,1.43261 v 10.02827 q 0,1.46935 0.0367,1.72648 0.0735,0.25714 0.40407,0.3306 0.551,0.14694 1.61627,0.14694 0.51427,0 0.51427,0.29387 z"
         style="stroke-width:0.393574"
         id="path3038" />
      <path
         d="m 865.06574,366.59914 q 0,0.3306 -0.91834,1.17547 -1.57955,1.43261 -3.74683,1.43261 -2.02035,0 -3.04889,-1.02854 -0.58774,-0.58774 -0.58774,-3.45296 v -10.94661 q -0.0367,-0.36734 -0.40407,-0.40407 H 854.964 q -0.80814,0 -0.80814,-0.25714 0,-0.25713 0.40407,-0.29386 2.86522,-0.25714 4.4815,-2.79176 0.2204,-0.3306 0.551,-0.3306 0.25714,0 0.25714,0.25713 v 0.14694 q -0.0367,0.18367 -0.0367,0.62447 0,1.54281 0.14694,1.98361 0.3306,0.0735 1.102,0.0735 2.02035,0 2.68156,-0.18367 0.14693,-0.0367 0.25713,-0.0367 0.29387,0 0.29387,0.3306 0,0.55101 -2.97542,0.55101 -0.51427,0 -1.50608,-0.0367 v 6.79572 q 0,5.1427 0.25714,6.46511 0.25713,1.28568 1.68974,1.28568 1.21221,0 2.71829,-1.35914 0.14693,-0.18367 0.3306,-0.18367 0.25714,0 0.25714,0.18367 z"
         style="stroke-width:0.393574"
         id="path3040" />
    </g>
  </g>
</svg>
